<svg width="602" height="607" viewBox="0 0 602 607" fill="none" xmlns="http://www.w3.org/2000/svg">
<path fill-rule="evenodd" clip-rule="evenodd" d="M369.847 587.6C356.045 570.922 336.468 559.367 313.43 548.934C335.649 536.61 361.115 523.62 387.298 508.151C384.196 510.357 381.158 513.006 378.189 516.142C410.171 535.212 433.706 528.153 458.436 510.297C435.996 499.971 414.107 494.211 394.415 503.892C401.515 499.589 408.649 495.097 415.77 490.372C406.036 494.153 398.371 501.724 388.597 505.432C390.016 491.315 399.197 472.032 419.723 458.867C415.156 469.788 412.969 482.13 416.029 490.201C419.07 488.181 422.108 486.119 425.139 484.011C424.902 484.109 424.663 484.205 424.418 484.298C425.837 470.18 435.018 443.017 455.544 429.852C451.177 440.293 446.053 458.226 448.272 466.864C453.52 462.707 458.717 458.394 463.839 453.899C463.205 454.247 462.56 454.552 461.899 454.803C463.185 442.009 465.987 413.975 482.846 397.889C486.291 394.602 488.052 392.312 487.75 398.555C487.225 409.349 485.753 423.215 487.915 430.637C488.473 430.002 489.028 429.355 489.583 428.711C489.129 428.94 488.667 429.145 488.191 429.325C489.476 416.532 486.315 380.366 503.174 364.28C506.619 360.993 508.379 358.704 508.077 364.945C507.54 376.004 506.776 395.921 509.22 403.511C511.42 400.386 513.6 397.199 515.751 393.911C515.497 394.025 515.239 394.132 514.971 394.234C516.139 384.788 504.746 357.01 517.026 340.271C519.84 336.433 524.32 326.897 525.161 333.087C526.362 341.941 529.35 359.69 530.459 369.304C532.692 365.228 534.895 361.058 537.055 356.762C536.296 357.332 535.41 357.823 534.363 358.22C535.532 348.774 519.06 319.149 526.26 303.333C528.232 299.003 533.556 289.959 534.395 296.149C535.689 305.678 545.516 326.433 546.377 335.34C543.549 338.459 542.814 342.602 541.995 346.567C549.12 331.378 555.77 314.802 561.892 296.774C562.5 294.754 563.154 292.761 563.897 290.819C566.402 283.16 568.82 275.257 571.126 267.061C570.009 272.641 568.757 278.064 567.441 283.411C572.731 274.619 581.705 267.98 599.836 266.723C585.816 286.998 588.415 307.14 556.671 319.224C553.544 327.864 550.135 336.149 546.488 344.124C558.343 327.293 575.821 311.372 593.085 313.652C578.902 334.165 582.043 358.924 539.223 359.017C534.047 368.938 528.484 378.333 522.583 387.23C522.042 388.203 521.444 389.127 520.76 389.981C514.946 398.552 508.814 406.646 502.441 414.337C498.971 419.922 495.187 425.677 490.028 428.479C489.332 429.23 488.644 429.993 487.943 430.734C488.052 431.1 488.171 431.449 488.299 431.783C487.43 432.112 486.585 432.536 485.762 433.032C473.773 446.383 461.322 457.912 448.621 467.976C448.631 468.002 448.639 468.028 448.649 468.054C448.567 468.085 448.484 468.117 448.403 468.15C425.911 485.939 402.665 499.205 379.897 510.073C377.424 502.134 380.937 491.95 385.335 481.435C365.243 494.321 352.246 509.295 350.375 523.164C332.909 530.428 316.087 536.796 300.518 543.325C284.95 536.796 268.125 530.428 250.66 523.164C248.792 509.295 235.797 494.321 215.701 481.435C220.096 491.95 223.609 502.134 221.139 510.073C198.372 499.205 175.126 485.939 152.63 468.15C152.549 468.117 152.473 468.085 152.386 468.054C152.392 468.028 152.407 468.002 152.413 467.976C139.717 457.912 127.265 446.383 115.276 433.032C114.447 432.536 113.604 432.112 112.738 431.783C112.869 431.449 112.983 431.1 113.094 430.734C112.394 429.993 111.701 429.23 111.009 428.479C105.845 425.677 102.066 419.922 98.5977 414.337C92.2216 406.646 86.0882 398.552 80.2761 389.981C79.593 389.127 78.9956 388.203 78.4521 387.23C72.5481 378.333 66.9846 368.938 61.8074 359.017C18.996 358.924 22.1322 334.165 7.94918 313.652C25.2148 311.372 42.6924 327.293 54.5481 344.124C50.8985 336.149 47.4917 327.864 44.3608 319.224C12.6192 307.14 15.218 286.998 1.19971 266.723C19.3297 267.98 28.3049 274.619 33.5925 283.411C32.279 278.064 31.0261 272.641 29.9128 267.061C32.216 275.257 34.6326 283.16 37.14 290.819C37.8785 292.761 38.5326 294.754 39.1446 296.774C45.2633 314.802 51.9126 331.378 59.042 346.567C58.2198 342.602 57.4848 338.459 54.6561 335.34C55.5194 326.433 65.3484 305.678 66.6437 296.149C67.4797 289.959 72.8063 299.003 74.7743 303.333C81.9757 319.149 65.5034 348.774 66.6746 358.22C65.627 357.823 64.7437 357.332 63.9768 356.762C66.1437 361.058 68.3418 365.228 70.5785 369.304C71.6848 359.69 74.6737 341.941 75.8774 333.087C76.7101 326.897 81.1945 336.433 84.0068 340.271C96.2919 357.01 84.9002 384.788 86.064 394.234C85.8002 394.132 85.5402 394.025 85.2813 393.911C87.4356 397.199 89.6157 400.386 91.8161 403.511C94.2557 395.921 93.4949 376.004 92.9617 364.945C92.6578 358.704 94.418 360.993 97.8625 364.28C114.716 380.366 111.556 416.532 112.846 429.325C112.368 429.145 111.903 428.94 111.456 428.711C112.013 429.355 112.563 430.002 113.117 430.637C115.279 423.215 113.803 409.349 113.287 398.555C112.983 392.312 114.745 394.602 118.189 397.889C135.048 413.975 137.854 442.009 139.132 454.803C138.475 454.552 137.831 454.247 137.192 453.899C142.324 458.394 147.515 462.707 152.765 466.864C154.982 458.226 149.861 440.293 145.488 429.852C166.021 443.017 175.195 470.18 176.614 484.298C176.371 484.205 176.131 484.109 175.892 484.011C178.927 486.119 181.965 488.181 185.005 490.201C188.069 482.13 185.878 469.788 181.312 458.867C201.837 472.032 211.016 491.315 212.437 505.432C202.664 501.724 195.004 494.153 185.269 490.372C192.386 495.097 199.517 499.589 206.617 503.892C186.928 494.211 165.041 499.971 142.597 510.297C167.331 528.153 190.868 535.212 222.838 516.142C219.878 513.006 216.836 510.357 213.733 508.151C239.918 523.62 265.388 536.61 287.609 548.934C264.57 559.366 244.992 570.922 231.191 587.6C230.17 598.829 234.592 604.614 244.461 604.954C253.531 586.7 273.97 571.724 300.518 556.255C327.067 571.724 347.506 586.7 356.577 604.954C366.44 604.614 370.861 598.829 369.847 587.6ZM485.671 433.087C481.739 437.161 477.741 441.11 473.686 444.934C477.543 440.482 481.323 435.74 485.671 433.087ZM442.641 471.256C441.67 472 440.695 472.729 439.721 473.462C440.662 472.696 441.628 471.954 442.641 471.256ZM550.515 325.722C562.366 299.558 559.442 274.009 541.743 249.076C535.741 258.079 532.047 268.238 533.432 280.935C534.615 302.632 541.929 315.132 550.515 325.722ZM563.906 286.014C575.756 259.85 565.444 241.227 565.752 211.215C559.75 220.218 550.054 232.223 551.439 244.921C552.622 266.618 555.319 275.424 563.906 286.014ZM420.77 490.26C461.935 498.894 472.947 492.252 497.677 474.396C468.856 461.134 443.867 475.436 420.77 490.26ZM454.584 463.543C495.749 472.176 509.683 461.36 534.413 443.504C513.594 438.473 479.56 451.068 454.584 463.543ZM486.728 433.904C527.893 442.537 533.896 423.372 556.121 403.011C529.327 395.739 499.631 416.903 486.728 433.904ZM515.335 399.51C559.956 400.079 557.501 379.436 577.978 363.153C549.442 353.441 525.689 378.944 515.335 399.51ZM115.363 433.087C119.3 437.161 123.294 441.11 127.349 444.934C123.492 440.482 119.712 435.74 115.363 433.087ZM158.397 471.256C159.366 472 160.336 472.729 161.311 473.462C160.375 472.696 159.407 471.954 158.397 471.256ZM50.5207 325.722C38.6676 299.558 41.5926 274.009 59.2917 249.076C65.2933 258.079 68.99 268.238 67.6048 280.935C66.4202 302.632 59.1055 315.132 50.5207 325.722ZM37.1301 286.014C25.2836 259.85 35.5945 241.227 35.2872 211.215C41.28 220.218 50.9798 232.223 49.5928 244.921C48.4093 266.618 45.7134 275.424 37.1301 286.014ZM180.265 490.26C139.1 498.894 128.087 492.252 103.354 474.396C132.178 461.134 157.163 475.436 180.265 490.26ZM146.45 463.543C105.286 472.176 91.3483 461.36 66.6266 443.504C87.4417 438.473 121.477 451.068 146.45 463.543ZM114.308 433.904C73.1406 442.537 67.1445 423.372 44.9156 403.011C71.7078 395.739 101.403 416.903 114.308 433.904ZM85.7046 399.51C41.0778 400.079 43.5292 379.436 23.0562 363.153C51.5952 353.441 75.3457 378.944 85.7046 399.51Z" fill="white"/>
<path fill-rule="evenodd" clip-rule="evenodd" d="M301.883 500.116C241.287 450.307 185.338 441.73 147.008 387.542C108.371 332.919 108.791 282.445 122.678 219.611C139.991 141.289 140.139 94.0922 120.099 69.4958C193.112 68.0063 261.58 41.9203 303.302 1.16724C345.024 42.8664 410.654 68.0063 483.668 69.4958C463.627 94.0922 463.775 141.289 481.088 219.611C494.976 282.445 495.396 332.919 456.759 387.542C418.429 441.73 362.48 450.307 301.883 500.116Z" fill="white"/>
<path fill-rule="evenodd" clip-rule="evenodd" d="M301.118 501.04C276.367 480.696 252.308 467.215 229.928 454.674L231.101 452.562C253.538 465.134 277.656 478.648 302.648 499.191L301.118 501.04ZM229.928 454.674C197.623 436.573 168.797 420.42 146.032 388.237L147.983 386.847C170.413 418.557 199.031 434.592 231.101 452.562L229.928 454.674ZM146.032 388.237L146.026 388.231L147.007 387.541L146.032 388.237ZM146.026 388.231C126.575 360.732 116.955 334.274 113.945 306.782L116.347 306.529C119.314 333.637 128.804 359.729 147.988 386.852L146.026 388.231ZM113.945 306.782C110.941 279.346 114.532 250.895 121.504 219.348L123.851 219.873C116.936 251.16 113.373 279.364 116.347 306.529L113.945 306.782ZM121.504 219.348C130.141 180.276 134.497 148.986 134.194 124.42L136.596 124.392C136.902 149.154 132.527 180.624 123.851 219.873L121.504 219.348ZM134.194 124.42C133.894 100.038 129.007 82.3317 119.165 70.2509L121.032 68.7398C131.229 81.2546 136.289 99.4462 136.596 124.392L134.194 124.42ZM119.165 70.2509C118.552 69.4988 119.106 68.3138 120.075 68.2942L120.098 69.4953L119.165 70.2509ZM120.075 68.2942L120.186 68.2916L120.233 70.6938L120.122 70.6965L120.075 68.2942ZM120.186 68.2916C130.313 68.0817 140.408 67.3874 150.404 66.2373L150.676 68.6396C140.712 69.7856 130.545 70.4798 120.233 70.6938L120.186 68.2916ZM150.404 66.2373C160.354 65.0925 170.148 63.4953 179.725 61.4737L180.214 63.8389C170.553 65.8784 160.686 67.4876 150.676 68.6396L150.404 66.2373ZM179.725 61.4737C228.957 51.0814 272.614 29.466 302.466 0.307691L304.136 2.02503C273.948 31.5126 229.869 53.3572 180.214 63.8389L179.725 61.4737ZM302.466 0.307691C302.891 -0.106976 303.732 -0.101239 304.15 0.317161L303.301 1.16636L302.466 0.307691ZM304.15 0.317161L304.214 0.380628L302.516 2.07917L302.452 2.01556L304.15 0.317161ZM304.214 0.380628C310.029 6.18743 316.301 11.6633 322.982 16.7882L321.528 18.6932C314.74 13.4861 308.386 7.94117 302.516 2.07917L304.214 0.380628ZM322.982 16.7882C329.659 21.9092 336.778 26.7038 344.294 31.1509L343.074 33.225C335.519 28.7558 328.322 23.904 321.528 18.6932L322.982 16.7882ZM344.294 31.1509C382.857 53.9686 431.367 67.2269 483.691 68.2938L483.644 70.6961C430.898 69.6212 381.979 56.245 343.074 33.225L344.294 31.1509ZM483.691 68.2938C484.66 68.3134 485.213 69.4984 484.601 70.2505L483.667 69.4949L483.691 68.2938ZM484.601 70.2505C474.758 82.3313 469.871 100.038 469.571 124.419L467.169 124.391C467.476 99.4454 472.537 81.2542 482.733 68.7394L484.601 70.2505ZM469.571 124.419C469.268 148.985 473.624 180.275 482.261 219.347L479.915 219.873C471.239 180.623 466.864 149.153 467.169 124.391L469.571 124.419ZM482.261 219.347C489.233 250.894 492.824 279.346 489.821 306.781L487.419 306.528C490.392 279.363 486.829 251.159 479.915 219.873L482.261 219.347ZM489.821 306.781C486.811 334.272 477.19 360.731 457.734 388.236L455.782 386.846C474.964 359.729 484.451 333.638 487.419 306.528L489.821 306.781ZM457.734 388.236C434.969 420.42 406.142 436.573 373.838 454.673L372.665 452.561C404.735 434.592 433.353 418.555 455.782 386.846L457.734 388.236ZM373.838 454.673C351.458 467.214 327.398 480.695 302.648 501.039L301.118 499.191C326.109 478.648 350.228 465.133 372.665 452.561L373.838 454.673ZM302.648 501.039C302.274 501.346 301.492 501.347 301.118 501.04L301.883 500.115L302.648 501.039Z" fill="#009140"/>
<path fill-rule="evenodd" clip-rule="evenodd" d="M401.652 340.679C396.582 325.833 379.329 311.334 342.535 307.695C344.86 316.532 349.544 322.733 351.869 331.57C366.919 328.151 381.406 342.799 394.943 345.278C399.825 346.171 402.86 345.117 401.652 340.679Z" fill="white"/>
<path fill-rule="evenodd" clip-rule="evenodd" d="M400.521 341.092C400.518 341.085 400.515 341.076 400.485 340.956L402.813 340.384C402.841 340.498 402.783 340.265 402.783 340.266L400.521 341.092ZM402.789 340.28C402.79 340.281 402.812 340.382 402.813 340.384L401.649 340.67L402.789 340.28ZM400.509 341.059C399.823 339.053 398.907 337.054 397.743 335.094L399.818 333.874C401.071 335.985 402.054 338.131 402.789 340.28L400.509 341.059ZM397.743 335.094C396.576 333.127 395.156 331.192 393.467 329.32L395.25 327.706C397.053 329.704 398.57 331.771 399.818 333.874L397.743 335.094ZM393.467 329.32C384.669 319.569 368.566 311.482 342.417 308.896L342.651 306.494C369.471 309.146 386.089 317.553 395.25 327.706L393.467 329.32ZM341.371 308C341.163 307.214 341.844 306.414 342.651 306.494L342.534 307.695L341.371 308ZM343.698 307.39C344.836 311.716 346.564 315.421 348.29 319.126L346.113 320.139C344.335 316.326 342.557 312.512 341.371 308L343.698 307.39ZM348.29 319.126C350.068 322.939 351.846 326.754 353.033 331.265L350.706 331.876C349.567 327.55 347.84 323.844 346.113 320.139L348.29 319.126ZM352.132 332.744C351.565 332.872 350.853 332.437 350.706 331.876L351.869 331.571L352.132 332.744ZM351.606 330.397C361.235 328.211 370.421 332.973 379.301 337.576L378.194 339.716C369.694 335.31 360.902 330.752 352.132 332.744L351.606 330.397ZM379.301 337.576C384.749 340.401 390.08 343.164 395.163 344.095L394.722 346.46C389.281 345.464 383.798 342.621 378.194 339.716L379.301 337.576ZM395.163 344.095C396.884 344.41 398.324 344.466 399.346 344.188L399.974 346.515C398.598 346.89 396.797 346.84 394.722 346.46L395.163 344.095ZM399.346 344.188C399.753 344.077 400.072 343.918 400.289 343.706L401.968 345.423C401.441 345.941 400.769 346.299 399.974 346.515L399.346 344.188ZM400.289 343.706C400.481 343.518 400.612 343.258 400.674 342.921L403.039 343.363C402.886 344.2 402.52 344.882 401.968 345.423L400.289 343.706ZM400.674 342.921C400.763 342.437 400.707 341.799 400.488 340.993L402.816 340.364C403.13 341.52 403.194 342.516 403.039 343.363L400.674 342.921ZM402.783 340.266C402.783 340.268 402.816 340.362 402.816 340.364L401.652 340.679L402.783 340.266Z" fill="#009140"/>
<path fill-rule="evenodd" clip-rule="evenodd" d="M300.668 55.2635C272.91 302.301 268.349 355.81 186.1 383.847H302.106V55.0073C302.023 49.3523 302.022 45.9983 301.969 44.7569C301.882 42.6879 301.653 46.4845 300.668 55.2635Z" fill="#009140"/>
<path fill-rule="evenodd" clip-rule="evenodd" d="M303.543 55.2635C331.301 302.301 335.863 355.81 418.111 383.847H302.106V55.0073C302.188 49.3523 302.189 45.9983 302.242 44.7569C302.329 42.6879 302.559 46.4845 303.543 55.2635Z" fill="white"/>
<path fill-rule="evenodd" clip-rule="evenodd" d="M302.342 55.3997C302.84 59.8331 303.332 64.2053 303.814 68.515L306.217 68.2429C305.734 63.9331 305.242 59.561 304.744 55.1275L302.342 55.3997ZM303.814 68.515C330.358 304.969 336.222 357.206 417.721 384.988L418.5 382.707C338.455 355.421 332.621 303.457 306.217 68.2429L303.814 68.515ZM417.721 384.988C418.827 385.365 419.284 382.646 418.111 382.646V383.847L417.721 384.988ZM418.111 382.646H302.106V385.049H418.111V382.646ZM302.106 382.646C301.506 382.646 303.307 384.448 303.307 383.847H302.106V382.646ZM303.307 383.847V55.0074H300.904V383.847H303.307ZM303.307 55.0074V55.0214L302.106 55.0074H303.307ZM303.307 55.0214C303.334 53.157 303.352 51.5135 303.367 50.117L300.964 50.1077C300.95 51.4714 300.932 53.0882 300.904 54.9931L303.307 55.0214ZM303.367 50.117C303.371 49.651 303.376 49.2126 303.38 48.8033L300.978 48.7939C300.974 49.2033 300.968 49.6417 300.964 50.1077L303.367 50.117ZM303.38 48.8033C303.4 46.8198 303.413 45.5049 303.443 44.8038L301.041 44.7101C301.012 45.3843 300.998 46.7439 300.978 48.7939L303.38 48.8033ZM303.443 44.8038C303.461 44.3695 301.464 45.3741 302.259 45.4059L302.353 43.0037C301.5 42.9695 301.089 43.5335 301.041 44.7101L303.443 44.8038ZM302.259 45.4059C303.242 45.4455 301.381 46.2903 301.563 48.0666L303.965 47.8323C303.643 44.6847 303.485 43.0494 302.353 43.0037L302.259 45.4059ZM301.563 48.0666C301.758 49.9697 302.022 52.5485 302.342 55.3997L304.744 55.1275C304.379 51.8734 304.141 49.5501 303.965 47.8323L301.563 48.0666Z" fill="#009140"/>
<path fill-rule="evenodd" clip-rule="evenodd" d="M193.545 382.869H415.339C415.475 382.509 426.912 382.015 426.912 390.199V390.386L426.977 397.716H181.965L181.972 390.386V390.199C181.53 387.756 182.721 382.869 193.545 382.869Z" fill="#009140"/>
<path fill-rule="evenodd" clip-rule="evenodd" d="M287.762 59.4084C287.099 59.4151 286.559 58.8824 286.557 58.2195C286.554 57.5566 287.09 57.0127 287.753 57.0062L287.762 59.4084ZM287.753 57.0062L317.741 56.7039L317.75 59.1062L287.762 59.4084L287.753 57.0062ZM317.741 56.7039C318.404 56.6973 318.944 57.2299 318.946 57.8929C318.949 58.5558 318.413 59.0996 317.75 59.1062L317.741 56.7039Z" fill="#009140"/>
<path fill-rule="evenodd" clip-rule="evenodd" d="M185.606 109.058C184.942 109.057 184.405 108.518 184.405 107.855C184.405 107.192 184.942 106.655 185.606 106.656V109.058ZM185.606 106.656L406.356 107.12V109.522L185.606 109.058V106.656ZM406.356 107.12C407.019 107.121 407.557 107.66 407.557 108.323C407.557 108.986 407.019 109.523 406.356 109.522V107.12Z" fill="#009140"/>
<path fill-rule="evenodd" clip-rule="evenodd" d="M407.896 107.101L447.622 254.64L445.294 255.269L405.568 107.73L407.896 107.101ZM447.622 254.64C447.818 255.371 447.217 256.156 446.458 256.156V254.954L447.622 254.64ZM446.458 256.156H406.731V253.753H446.458V256.156ZM406.731 256.156H363.582V253.753H406.731V256.156ZM363.582 256.156C362.814 256.156 362.212 255.364 362.428 254.626L363.582 254.954V256.156ZM362.428 254.626L405.577 107.087L407.886 107.744L364.737 255.283L362.428 254.626ZM405.577 107.087C405.89 106.015 407.606 106.027 407.896 107.101L406.731 107.415L405.577 107.087ZM405.501 107.718C405.501 107.054 406.039 106.517 406.702 106.517C407.365 106.517 407.904 107.054 407.904 107.718H405.501ZM407.904 107.718V254.305H405.501V107.718H407.904ZM407.904 254.305C407.904 254.968 407.365 255.506 406.702 255.506C406.039 255.506 405.501 254.968 405.501 254.305H407.904Z" fill="#009140"/>
<path fill-rule="evenodd" clip-rule="evenodd" d="M447.076 255.602C447.076 276.518 429.615 288.03 406.115 288.03C382.614 288.03 362.594 276.518 362.594 255.602H447.076Z" fill="#009140"/>
<path fill-rule="evenodd" clip-rule="evenodd" d="M186.567 107.101L226.294 254.64L223.966 255.269L184.239 107.73L186.567 107.101ZM226.294 254.64C226.49 255.371 225.889 256.156 225.13 256.156V254.954L226.294 254.64ZM225.13 256.156H185.403V253.753H225.13V256.156ZM185.403 256.156H142.254V253.753H185.403V256.156ZM142.254 256.156C141.486 256.156 140.884 255.364 141.1 254.626L142.254 254.954V256.156ZM141.1 254.626L184.249 107.087L186.557 107.744L143.409 255.283L141.1 254.626ZM184.249 107.087C184.562 106.015 186.278 106.027 186.567 107.101L185.403 107.415L184.249 107.087ZM184.173 107.718C184.173 107.054 184.711 106.517 185.374 106.517C186.037 106.517 186.575 107.054 186.575 107.718H184.173ZM186.575 107.718V254.305H184.173V107.718H186.575ZM186.575 254.305C186.575 254.968 186.037 255.506 185.374 255.506C184.711 255.506 184.173 254.968 184.173 254.305H186.575Z" fill="#009140"/>
<path fill-rule="evenodd" clip-rule="evenodd" d="M225.748 255.602C225.748 276.518 208.288 288.03 184.787 288.03C161.287 288.03 141.266 276.518 141.266 255.602H225.748Z" fill="#009140"/>
<path fill-rule="evenodd" clip-rule="evenodd" d="M313.913 146.978L318.439 181.689C327.359 189.585 334.294 198.671 327.336 216.092C316.271 233.911 304.854 249.84 289.654 262.555C273.565 276.014 252.638 279.369 245.533 300.217C241.186 312.971 243.593 323.682 252.006 332.35C280.306 314.589 309.505 298.547 331.488 268.289C377.714 203.788 353.433 176.609 323.15 152.612C321.398 151.224 317.014 148.832 313.913 146.978Z" fill="white"/>
<path fill-rule="evenodd" clip-rule="evenodd" d="M315.105 146.828L319.631 181.539L317.247 181.839L312.721 147.128L315.105 146.828ZM317.641 182.59C317.531 182.492 317.265 181.985 317.247 181.839L318.439 181.689L317.641 182.59ZM319.236 180.788C323.822 184.847 327.905 189.231 329.972 194.911L327.711 195.727C325.821 190.535 321.974 186.426 317.641 182.59L319.236 180.788ZM329.972 194.911C332.047 200.61 332.059 207.517 328.458 216.533L326.215 215.651C329.572 207.247 329.593 200.899 327.711 195.727L329.972 194.911ZM328.458 216.533C328.454 216.541 328.359 216.723 328.354 216.73L327.336 216.092L328.458 216.533ZM328.354 216.73C322.808 225.662 317.165 234.13 310.989 241.979L309.102 240.496C315.199 232.747 320.799 224.34 326.318 215.453L328.354 216.73ZM310.989 241.979C304.792 249.854 298.08 257.079 290.429 263.48L288.879 261.631C296.427 255.318 303.025 248.219 309.102 240.496L310.989 241.979ZM290.429 263.48C284.938 268.073 278.925 271.487 273.077 274.807L271.885 272.714C277.633 269.451 283.544 266.095 288.879 261.631L290.429 263.48ZM273.077 274.807C261.848 281.182 251.241 287.205 246.674 300.607L244.393 299.827C249.254 285.563 260.247 279.321 271.885 272.714L273.077 274.807ZM246.674 300.607L246.67 300.619L244.389 299.839L244.393 299.827L246.674 300.607ZM246.67 300.619C246.08 302.35 245.618 304.044 245.284 305.699L242.919 305.23C243.273 303.475 243.764 301.677 244.389 299.839L246.67 300.619ZM245.284 305.699C244.947 307.363 244.738 308.97 244.655 310.516L242.253 310.403C242.344 308.7 242.565 306.975 242.919 305.23L245.284 305.699ZM244.655 310.516C244.228 318.526 247.054 325.527 252.864 331.515L251.147 333.185C244.85 326.697 241.789 319.102 242.253 310.403L244.655 310.516ZM252.644 333.368C252.243 333.62 251.478 333.526 251.147 333.185L252.006 332.35L252.644 333.368ZM251.367 331.332C255.149 328.959 257.894 327.259 260.613 325.577L261.88 327.632C258.432 329.765 255.008 331.884 252.644 333.368L251.367 331.332ZM260.613 325.577C285.831 309.97 311.065 294.353 330.512 267.585L332.464 268.993C312.72 296.168 287.293 311.905 261.88 327.632L260.613 325.577ZM330.512 267.585C353.391 235.662 358.841 213.062 354.837 195.524L357.184 194.999C361.334 213.173 355.812 236.415 332.464 268.993L330.512 267.585ZM354.837 195.524C350.844 178.035 337.368 165.412 322.404 153.555L323.897 151.669C339.216 163.808 353.022 176.774 357.184 194.999L354.837 195.524ZM323.873 151.65L323.897 151.669L323.15 152.612L323.873 151.65ZM322.428 153.574L322.425 153.571L323.87 151.647L323.873 151.65L322.428 153.574ZM322.425 153.571L322.401 153.553L323.147 152.609L322.425 153.571ZM322.401 153.553C321.189 152.593 318.633 151.113 316.166 149.684L317.367 147.61C319.933 149.096 322.592 150.635 323.894 151.666L322.401 153.553ZM316.166 149.684C315.201 149.125 314.247 148.572 313.298 148.005L314.528 145.95C315.335 146.432 316.344 147.017 317.367 147.61L316.166 149.684ZM312.721 147.128C312.596 146.167 313.693 145.451 314.528 145.95L313.913 146.978L312.721 147.128Z" fill="#009140"/>
<path fill-rule="evenodd" clip-rule="evenodd" d="M376.22 97.2618C377.595 94.7854 377.87 92.6534 381.172 92.1031L376.22 97.2618ZM322.93 104.563C333.15 105.672 342.604 105.062 350.986 102.034C355.446 101.211 359.483 99.9667 363.186 98.3873C365.931 97.2167 368.767 96.603 369.517 93.5106C369.689 92.8003 369.775 92.0902 369.775 91.3797C369.775 86.8069 367.864 86.7815 364.024 85.8589C358.36 84.4957 352.543 83.5931 346.668 82.8693C340.846 82.1523 338.861 82.4574 333.606 85.3487C327.501 88.7057 323.107 92.4897 319.023 96.3517C316.182 97.5362 313.341 98.7195 310.5 99.9033C304.162 103.325 298.084 107.682 291.747 111.104C274.08 123.701 266.484 139.04 288.411 164.207L292.679 133.304C278.764 120.364 318.317 101.923 322.93 104.563ZM368.792 95.6109C372.694 96.5833 376.301 97.7017 381.378 98.0869L368.792 95.6109Z" fill="white"/>
<path fill-rule="evenodd" clip-rule="evenodd" d="M377.276 97.8482C376.953 98.4314 376.216 98.6415 375.634 98.3176C375.051 97.9936 374.841 97.2582 375.164 96.675L377.276 97.8482ZM375.164 96.675C375.498 96.073 375.684 95.6878 375.86 95.3208L378.018 96.3624C377.76 96.901 377.486 97.4702 377.276 97.8482L375.164 96.675ZM378.028 96.3579L378.018 96.3624L376.939 95.8411L378.028 96.3579ZM375.851 95.3254C376.887 93.168 377.711 91.4555 380.98 90.9108L381.364 93.295C379.337 93.6328 378.758 94.839 378.028 96.3579L375.851 95.3254ZM380.98 90.9108C381.637 90.8016 382.257 91.2464 382.363 91.9044C382.469 92.5624 382.022 93.1858 381.364 93.295L380.98 90.9108ZM323.056 103.362C328.102 103.909 332.948 104.033 337.549 103.649L337.746 106.051C332.97 106.45 327.976 106.325 322.803 105.764L323.056 103.362ZM337.549 103.649C342.14 103.265 346.497 102.377 350.578 100.903L351.394 103.165C347.094 104.718 342.532 105.651 337.746 106.051L337.549 103.649ZM350.578 100.903C350.584 100.9 350.758 100.853 350.765 100.851L350.986 102.034L350.578 100.903ZM350.765 100.851C352.973 100.444 355.056 99.9383 357.028 99.3444L357.712 101.644C355.624 102.273 353.458 102.801 351.206 103.217L350.765 100.851ZM357.028 99.3444C359.004 98.7492 360.9 98.0568 362.722 97.2798L363.651 99.4946C361.771 100.296 359.794 101.017 357.712 101.644L357.028 99.3444ZM363.67 99.4851L363.651 99.4946L363.186 98.387L363.67 99.4851ZM362.703 97.2892C362.728 97.2786 362.753 97.2668 362.826 97.2427L363.568 99.5232C363.501 99.5452 363.688 99.4771 363.67 99.4851L362.703 97.2892ZM363.661 99.4904C363.659 99.4907 363.569 99.5228 363.568 99.5232L363.197 98.383L363.661 99.4904ZM362.732 97.2756C363.295 97.0359 363.649 96.8964 363.997 96.7592L364.879 99.002C364.406 99.188 363.926 99.3774 363.661 99.4904L362.732 97.2756ZM363.997 96.7592C366.002 95.9704 367.858 95.2399 368.344 93.2334L370.69 93.7875C369.906 97.0239 367.49 97.9748 364.879 99.002L363.997 96.7592ZM368.344 93.2334C368.427 92.8916 368.485 92.5814 368.518 92.3043L370.902 92.5855C370.85 93.0179 370.779 93.4194 370.69 93.7875L368.344 93.2334ZM368.518 92.3043C368.555 91.9998 368.573 91.691 368.573 91.3795H370.976C370.976 91.7779 370.951 92.1808 370.902 92.5855L368.518 92.3043ZM368.573 91.3795C368.573 88.1468 367.276 87.8471 364.671 87.2466L365.215 84.9003C369.06 85.787 370.976 86.2284 370.976 91.3795H368.573ZM364.671 87.2466C364.318 87.1658 363.967 87.0844 363.747 87.0319L364.301 84.6856C364.72 84.7858 364.982 84.847 365.215 84.9003L364.671 87.2466ZM363.747 87.0319C360.962 86.3614 358.117 85.8006 355.233 85.316L355.618 82.9319C358.528 83.4206 361.424 83.9932 364.301 84.6856L363.747 87.0319ZM355.233 85.316C352.232 84.8122 349.346 84.4082 346.528 84.0612L346.809 81.6771C349.864 82.0531 352.826 82.4632 355.618 82.9319L355.233 85.316ZM346.528 84.0612C343.739 83.718 341.884 83.6167 340.145 83.9384L339.704 81.5731C341.726 81.199 343.775 81.3036 346.809 81.6771L346.528 84.0612ZM340.145 83.9384C338.413 84.2588 336.699 85.0208 334.182 86.4046L333.028 84.2926C335.769 82.7852 337.675 81.9484 339.704 81.5731L340.145 83.9384ZM334.182 86.4046C331.197 88.0463 328.623 89.7978 326.294 91.6131L324.82 89.7082C327.234 87.8267 329.911 86.007 333.028 84.2926L334.182 86.4046ZM326.294 91.6131C323.968 93.425 321.873 95.3159 319.849 97.2291L318.198 95.4739C320.258 93.5259 322.402 91.5923 324.82 89.7082L326.294 91.6131ZM319.849 97.2291C319.821 97.2555 319.519 97.4491 319.483 97.4638L319.024 96.3515L319.849 97.2291ZM319.483 97.4638L310.96 101.015L310.04 98.7908L318.564 95.2391L319.483 97.4638ZM309.922 98.8471C309.925 98.8459 310.037 98.7919 310.04 98.7908L310.5 99.9031L309.922 98.8471ZM311.077 100.959L311.073 100.962L309.918 98.8498L309.922 98.8471L311.077 100.959ZM311.073 100.962L311.063 100.966L310.496 99.9052L311.073 100.962ZM311.063 100.966C307.918 102.664 304.839 104.594 301.76 106.522L300.482 104.486C303.61 102.527 306.738 100.567 309.928 98.8447L311.063 100.966ZM301.76 106.522C298.633 108.481 295.504 110.441 292.315 112.164L291.179 110.043C294.324 108.345 297.404 106.415 300.482 104.486L301.76 106.522ZM291.053 110.127C291.055 110.125 291.175 110.045 291.179 110.043L291.747 111.103L291.053 110.127ZM292.442 112.079C283.86 118.199 277.73 124.942 276.423 133.124L274.039 132.758C275.465 123.832 281.968 116.606 291.053 110.127L292.442 112.079ZM276.423 133.124C275.112 141.336 278.621 151.138 289.321 163.418L287.501 164.995C276.274 152.11 272.618 141.657 274.039 132.758L276.423 133.124ZM289.603 164.366C289.467 165.355 288.155 165.746 287.501 164.995L288.411 164.207L289.603 164.366ZM287.219 164.047L291.488 133.144L293.872 133.463L289.603 164.366L287.219 164.047ZM293.496 132.426C293.683 132.6 293.906 133.211 293.872 133.463L292.679 133.303L293.496 132.426ZM291.863 134.181C288.885 131.412 288.07 128.388 288.744 125.323L291.09 125.84C290.598 128.077 291.231 130.32 293.496 132.426L291.863 134.181ZM291.09 125.835V125.84L289.917 125.582L291.09 125.835ZM288.744 125.328C289.325 122.684 291.047 120.069 293.438 117.614L295.156 119.284C293.062 121.434 291.568 123.664 291.09 125.835L288.744 125.328ZM293.438 117.614C295.759 115.23 298.712 112.985 301.847 111.011L303.124 113.047C300.122 114.937 297.319 117.062 295.156 119.284L293.438 117.614ZM301.847 111.011C310.587 105.508 321.062 102.106 323.526 103.517L322.334 105.61C320.469 104.542 311.219 107.951 303.124 113.047L301.847 111.011ZM322.803 105.764C322.753 105.759 322.377 105.635 322.334 105.61L322.93 104.563L322.803 105.764ZM368.506 96.7743C367.864 96.6148 367.472 95.9635 367.63 95.3214C367.787 94.6792 368.436 94.2874 369.078 94.4468L368.506 96.7743ZM369.078 94.4468C370.231 94.7338 370.631 94.8376 371.03 94.9404L370.42 97.2679C369.536 97.0396 368.652 96.8106 368.506 96.7743L369.078 94.4468ZM371.03 94.9404C374.183 95.756 377.337 96.5724 381.468 96.8854L381.29 99.2876C376.958 98.9592 373.689 98.1134 370.42 97.2679L371.03 94.9404ZM381.468 96.8854C382.13 96.9352 382.628 97.5143 382.58 98.1772C382.53 98.8402 381.952 99.3375 381.29 99.2876L381.468 96.8854Z" fill="#009140"/>
<path fill-rule="evenodd" clip-rule="evenodd" d="M344.96 88.5952C346.607 88.5952 347.951 89.9392 347.951 91.5875C347.951 93.2346 346.607 94.5789 344.96 94.5789C343.312 94.5789 341.967 93.2346 341.967 91.5875C341.967 89.9392 343.312 88.5952 344.96 88.5952Z" fill="#009140"/>
<path fill-rule="evenodd" clip-rule="evenodd" d="M368.923 588.365C362.107 580.129 353.848 573.147 344.44 566.929L345.764 564.921C355.353 571.258 363.786 578.393 370.772 586.835L368.923 588.365ZM344.44 566.929C335.003 560.693 324.404 555.224 312.937 550.032L313.922 547.836C325.494 553.076 336.203 558.602 345.764 564.921L344.44 566.929ZM312.937 550.032C312.059 549.634 312.007 548.339 312.852 547.878L313.43 548.934L312.937 550.032ZM312.852 547.878L312.856 547.875L314.011 549.987L314.006 549.99L312.852 547.878ZM314.02 549.987L314.011 549.987L313.434 548.931L314.02 549.987ZM312.847 547.875C320.071 543.869 328.185 539.502 336.583 534.985L337.718 537.106C329.686 541.428 321.922 545.605 314.02 549.987L312.847 547.875ZM336.583 534.985C352.488 526.426 369.431 517.309 386.688 507.114L387.908 509.188C370.626 519.398 353.652 528.532 337.718 537.106L336.583 534.985ZM386.688 507.114C387.717 506.506 388.971 508.431 387.993 509.127L387.298 508.151L386.688 507.114ZM387.993 509.127C386.509 510.182 385.005 511.374 383.482 512.708L381.905 510.887C383.418 509.562 384.985 508.326 386.603 507.175L387.993 509.127ZM383.482 512.708C382 514.007 380.527 515.426 379.067 516.968L377.312 515.317C378.82 513.723 380.352 512.248 381.905 510.887L383.482 512.708ZM377.575 517.17C376.945 516.794 376.811 515.846 377.312 515.317L378.189 516.142L377.575 517.17ZM378.804 515.115C394.541 524.498 408.173 527.456 420.891 525.875L421.172 528.259C407.947 529.903 393.82 526.856 377.575 517.17L378.804 515.115ZM420.891 525.875C433.622 524.292 445.517 518.141 457.732 509.321L459.14 511.273C446.626 520.308 434.386 526.616 421.172 528.259L420.891 525.875ZM458.938 509.199C459.753 509.574 459.869 510.746 459.14 511.273L458.436 510.297L458.938 509.199ZM457.934 511.395C446.8 506.272 435.822 502.283 425.235 500.784L425.554 498.4C436.444 499.942 447.634 503.998 458.938 509.199L457.934 511.395ZM425.235 500.784C414.717 499.295 404.548 500.248 394.941 504.971L393.89 502.812C403.972 497.856 414.596 496.848 425.554 498.4L425.235 500.784ZM394.941 504.971C393.866 505.499 392.771 503.485 393.796 502.864L394.415 503.892L394.941 504.971ZM393.796 502.864C397.284 500.75 400.834 498.557 404.446 496.272L405.723 498.308C402.215 500.527 398.646 502.732 395.035 504.919L393.796 502.864ZM404.446 496.272C407.975 494.041 411.53 491.742 415.108 489.368L416.431 491.376C412.89 493.726 409.316 496.037 405.723 498.308L404.446 496.272ZM415.338 489.251C416.446 488.821 417.421 490.72 416.431 491.376L415.77 490.372L415.338 489.251ZM416.201 491.493C411.519 493.313 407.247 496.087 402.976 498.862L401.672 496.834C406.027 494.005 410.381 491.176 415.338 489.251L416.201 491.493ZM402.976 498.862C398.543 501.742 394.107 504.623 389.019 506.553L388.175 504.31C392.954 502.498 397.314 499.666 401.672 496.834L402.976 498.862ZM389.019 506.553C388.204 506.862 387.31 506.176 387.396 505.314L388.597 505.432L389.019 506.553ZM387.396 505.314L387.399 505.292L389.801 505.526L389.798 505.549L387.396 505.314ZM387.399 505.292C387.603 503.267 387.965 501.135 388.492 498.929L390.839 499.483C390.338 501.573 389.996 503.598 389.801 505.526L387.399 505.292ZM388.492 498.929C389.009 496.769 389.702 494.502 390.581 492.16L392.824 493.005C392.008 495.177 391.349 497.349 390.839 499.483L388.492 498.929ZM392.834 492.995L392.824 493.005L391.703 492.583L392.834 492.995ZM390.572 492.169C395.009 480.35 404.06 467.481 419.071 457.854L420.376 459.881C405.851 469.197 397.109 481.609 392.834 492.995L390.572 492.169ZM419.071 457.854C419.986 457.267 421.242 458.298 420.836 459.313L419.723 458.867L419.071 457.854ZM420.836 459.313C420.812 459.375 420.81 459.39 420.798 459.414L418.639 458.344C418.654 458.313 418.59 458.476 418.611 458.422L420.836 459.313ZM418.606 458.419C418.606 458.418 418.639 458.345 418.639 458.344L419.719 458.879L418.606 458.419ZM420.831 459.339C420.206 460.833 419.623 462.367 419.09 463.923L416.809 463.144C417.351 461.563 417.953 459.981 418.606 458.419L420.831 459.339ZM419.09 463.923C418.555 465.484 418.078 467.038 417.671 468.566L415.344 467.956C415.778 466.329 416.269 464.719 416.809 463.144L419.09 463.923ZM417.671 468.566V468.575L416.507 468.261L417.671 468.566ZM417.671 468.575C415.565 476.468 415.047 484.229 417.15 489.779L414.908 490.623C412.608 484.556 413.12 476.276 415.344 467.947L417.671 468.575ZM416.691 491.205C416.081 491.61 415.168 491.31 414.908 490.623L416.029 490.201L416.691 491.205ZM415.367 489.197C417.033 488.09 418.554 487.07 419.918 486.144L421.259 488.134C419.586 489.27 418.066 490.292 416.691 491.205L415.367 489.197ZM419.918 486.144C421.413 485.128 422.926 484.088 424.455 483.025L425.825 484.996C424.322 486.041 422.8 487.087 421.259 488.134L419.918 486.144ZM424.679 482.898C425.774 482.442 426.802 484.317 425.825 484.996L425.14 484.011L424.679 482.898ZM425.6 485.123C425.424 485.196 425.305 485.245 425.223 485.278L424.34 483.035C424.498 482.972 424.618 482.924 424.679 482.898L425.6 485.123ZM425.223 485.278C425.095 485.329 425.212 485.278 424.841 485.419L423.996 483.176C424.124 483.128 423.972 483.182 424.34 483.035L425.223 485.278ZM424.841 485.419C424.025 485.728 423.131 485.042 423.218 484.18L424.418 484.297L424.841 485.419ZM423.218 484.18L423.22 484.158L425.622 484.392L425.62 484.415L423.218 484.18ZM423.22 484.158C423.424 482.131 423.783 479.854 424.304 477.405L426.669 477.893C426.163 480.272 425.817 482.463 425.622 484.392L423.22 484.158ZM424.304 477.405C424.821 474.975 425.507 472.342 426.374 469.579L428.674 470.293C427.845 472.934 427.18 475.494 426.669 477.893L424.304 477.405ZM426.374 469.579C430.797 455.474 439.845 438.489 454.892 428.839L456.197 430.866C441.707 440.159 432.963 456.613 428.674 470.293L426.374 469.579ZM454.892 428.839C455.816 428.246 457.086 429.305 456.652 430.317L455.545 429.852L454.892 428.839ZM456.652 430.317L456.648 430.327L454.433 429.399L454.437 429.388L456.652 430.317ZM454.428 429.403L454.433 429.399L455.541 429.863L454.428 429.403ZM456.652 430.323C456.041 431.788 455.42 433.38 454.815 435.052L452.554 434.235C453.185 432.489 453.818 430.863 454.428 429.403L456.652 430.323ZM454.815 435.052C454.21 436.724 453.605 438.517 453.022 440.386L450.723 439.672C451.303 437.811 451.921 435.982 452.554 434.235L454.815 435.052ZM453.022 440.386C450.084 449.807 447.903 460.599 449.436 466.568L447.109 467.159C445.449 460.696 447.681 449.425 450.723 439.672L453.022 440.386ZM449.018 467.807C448.357 468.331 447.319 467.978 447.109 467.159L448.273 466.864L449.018 467.807ZM447.526 465.92C450.202 463.801 452.81 461.688 455.338 459.584L456.868 461.433C454.206 463.648 451.591 465.77 449.018 467.807L447.526 465.92ZM455.338 459.584C457.84 457.503 460.409 455.308 463.051 452.988L464.628 454.809C462.149 456.984 459.558 459.195 456.868 461.433L455.338 459.584ZM463.262 452.843C464.305 452.269 465.521 454.025 464.628 454.809L463.84 453.899L463.262 452.843ZM464.416 454.955C464.103 455.127 463.761 455.301 463.387 455.476L462.373 453.299C462.645 453.172 462.942 453.019 463.262 452.843L464.416 454.955ZM463.387 455.476C463.059 455.63 462.704 455.779 462.322 455.924L461.478 453.681C461.756 453.576 462.057 453.447 462.373 453.299L463.387 455.476ZM462.322 455.924C461.506 456.233 460.613 455.547 460.7 454.685L461.9 454.802L462.322 455.924ZM460.7 454.685L460.702 454.652L463.104 454.886L463.102 454.92L460.7 454.685ZM460.702 454.652C462.002 441.707 464.846 413.409 482.021 397.021L483.673 398.757C467.161 414.512 464.377 442.214 463.104 454.886L460.702 454.652ZM482.021 397.021C482.345 396.711 482.624 396.441 482.89 396.183L484.56 397.9C484.268 398.184 483.961 398.482 483.673 398.757L482.021 397.021ZM482.89 396.183C484.55 394.571 485.794 393.365 486.989 393.422L486.876 395.824C486.708 395.816 485.787 396.709 484.56 397.9L482.89 396.183ZM486.989 393.422C488.46 393.494 489.13 394.921 488.951 398.611L486.549 398.498C486.643 396.55 487.007 395.831 486.876 395.824L486.989 393.422ZM488.951 398.611C488.951 398.626 488.948 398.642 488.948 398.658L486.546 398.545C486.546 398.53 486.549 398.513 486.549 398.498L488.951 398.611ZM488.948 398.658C488.847 400.739 488.715 402.867 488.581 405.039L486.179 404.907C486.315 402.7 486.449 400.536 486.546 398.545L488.948 398.658ZM488.581 405.039C488.004 414.357 487.377 424.498 489.07 430.309L486.761 430.965C484.951 424.752 485.591 414.41 486.179 404.907L488.581 405.039ZM488.834 431.42C488.231 432.125 487.022 431.862 486.761 430.965L487.915 430.637L488.834 431.42ZM486.996 429.853L486.998 429.851L488.837 431.418L488.834 431.42L486.996 429.853ZM486.998 429.851L487.008 429.846L487.918 430.634L486.998 429.851ZM487.008 429.846C487.431 429.364 487.854 428.873 488.275 428.384L490.096 429.961C489.675 430.45 489.252 430.94 488.828 431.422L487.008 429.846ZM490.105 429.956L490.096 429.961L489.186 429.173L490.105 429.956ZM488.266 428.389C488.787 427.785 487.883 428.837 488.674 427.922L490.494 429.499C489.968 430.107 490.892 429.043 490.105 429.956L488.266 428.389ZM489.044 427.641C490.078 427.119 491.248 428.627 490.494 429.499L489.584 428.711L489.044 427.641ZM490.124 429.781C489.765 429.962 489.518 430.082 489.379 430.143L488.412 427.929C488.738 427.785 488.951 427.688 489.044 427.641L490.124 429.781ZM489.379 430.143C489.244 430.203 488.994 430.302 488.613 430.446L487.769 428.203C487.864 428.167 488.085 428.073 488.412 427.929L489.379 430.143ZM488.613 430.446C487.798 430.753 486.904 430.068 486.99 429.207L488.191 429.324L488.613 430.446ZM486.99 429.207L486.993 429.184L489.395 429.419L489.392 429.441L486.99 429.207ZM486.993 429.184C487.246 426.649 487.326 423.305 487.418 419.403L489.82 419.45C489.724 423.484 489.642 426.942 489.395 429.419L486.993 429.184ZM487.418 419.403C487.81 402.901 488.435 376.688 502.35 363.412L504.001 365.148C490.812 377.731 490.203 403.332 489.82 419.45L487.418 419.403ZM502.35 363.412C502.67 363.106 502.952 362.833 503.217 362.574L504.888 364.292C504.597 364.575 504.293 364.87 504.001 365.148L502.35 363.412ZM503.217 362.574C504.878 360.962 506.122 359.756 507.317 359.813L507.204 362.215C507.036 362.207 506.115 363.1 504.888 364.292L503.217 362.574ZM507.317 359.813C508.788 359.884 509.458 361.311 509.279 365.001L506.877 364.889C506.972 362.94 507.335 362.221 507.204 362.215L507.317 359.813ZM509.279 365.001C509.011 370.527 508.686 378.262 508.733 385.524L506.33 385.533C506.284 378.176 506.609 370.421 506.877 364.889L509.279 365.001ZM508.733 385.524C508.78 392.718 509.187 399.469 510.371 403.145L508.071 403.877C506.812 399.964 506.378 392.959 506.33 385.533L508.733 385.524ZM510.202 404.201C509.646 404.991 508.366 404.791 508.071 403.877L509.221 403.511L510.202 404.201ZM508.241 402.821C509.189 401.473 510.269 399.913 511.51 398.091L513.5 399.452C512.564 400.826 511.452 402.425 510.202 404.201L508.241 402.821ZM511.51 398.091C512.693 396.355 513.781 394.733 514.748 393.253L516.756 394.567C515.573 396.376 514.494 397.992 513.5 399.452L511.51 398.091ZM515.259 392.812C516.266 392.356 517.363 393.639 516.756 394.567L515.752 393.91L515.259 392.812ZM516.245 395.008C516.105 395.071 515.965 395.132 515.827 395.189L514.907 392.964C515.028 392.914 515.146 392.863 515.259 392.812L516.245 395.008ZM515.827 395.189C515.8 395.199 515.65 395.258 515.393 395.355L514.549 393.112C514.561 393.108 514.675 393.06 514.907 392.964L515.827 395.189ZM515.393 395.355C514.57 395.668 513.671 394.966 513.779 394.093L514.972 394.234L515.393 395.355ZM513.779 394.093C513.851 393.519 513.636 395.242 513.773 394.079L516.175 394.351C516.04 395.501 516.236 393.788 516.163 394.374L513.779 394.093ZM513.773 394.079L513.782 394.075L514.974 394.216L513.773 394.079ZM513.782 394.075C514.108 391.401 513.336 386.983 512.419 381.726L514.784 381.322C515.734 386.768 516.533 391.343 516.166 394.356L513.782 394.075ZM512.419 381.726C510.208 369.057 507.174 351.672 516.061 339.558L517.994 340.984C509.714 352.271 512.647 369.077 514.784 381.322L512.419 381.726ZM516.061 339.558L516.067 339.547L518.001 340.973L517.994 340.984L516.061 339.558ZM516.067 339.547C516.65 338.751 517.404 337.534 518.181 336.281L520.236 337.547C519.473 338.779 518.732 339.975 518.001 340.973L516.067 339.547ZM518.181 336.281C520.033 333.293 522.008 330.105 523.779 329.865L524.098 332.249C523.467 332.334 521.799 335.025 520.236 337.547L518.181 336.281ZM523.779 329.865C525.098 329.686 526.029 330.531 526.354 332.927L523.97 333.246C523.877 332.558 524.259 332.227 524.098 332.249L523.779 329.865ZM526.354 332.927V332.946L525.162 333.086L526.354 332.927ZM526.354 332.946C526.358 332.984 526.345 332.869 526.348 332.884L523.983 333.325C523.982 333.322 523.976 333.277 523.971 333.227L526.354 332.946ZM526.348 332.884C526.348 332.884 526.357 332.944 526.357 332.945L525.165 333.104L526.348 332.884ZM526.357 332.945C526.81 336.281 527.585 341.305 528.412 346.666L526.028 347.032C525.228 341.847 524.478 336.989 523.973 333.264L526.357 332.945ZM528.412 346.666C529.647 354.669 531 363.436 531.66 369.167L529.258 369.44C528.587 363.614 527.249 354.945 526.028 347.032L528.412 346.666ZM531.516 369.881C530.988 370.843 529.383 370.525 529.258 369.44L530.46 369.303L531.516 369.881ZM529.404 368.726C530.609 366.524 531.724 364.456 532.725 362.557L534.846 363.673C533.646 365.951 532.542 368.007 531.516 369.881L529.404 368.726ZM532.725 362.557C533.724 360.659 534.803 358.562 535.977 356.227L538.136 357.296C537.15 359.257 536.046 361.393 534.846 363.673L532.725 362.557ZM536.334 355.8C537.246 355.114 538.647 356.278 538.136 357.296L537.057 356.761L536.334 355.8ZM537.779 357.723C537.352 358.043 536.892 358.341 536.396 358.611L535.241 356.499C535.638 356.283 536.002 356.049 536.334 355.8L537.779 357.723ZM536.396 358.611C535.922 358.869 535.388 359.113 534.786 359.341L533.941 357.098C534.387 356.929 534.821 356.728 535.241 356.499L536.396 358.611ZM534.786 359.341C533.963 359.652 533.063 358.951 533.172 358.079L534.364 358.219L534.786 359.341ZM533.172 358.079C533.243 357.505 533.029 359.227 533.165 358.065L535.567 358.337C535.432 359.487 535.629 357.774 535.555 358.36L533.172 358.079ZM533.165 358.065L533.174 358.061L534.367 358.201L533.165 358.065ZM533.174 358.061C533.564 354.846 531.636 348.743 529.388 341.623L531.687 340.891C534.016 348.266 536.013 354.589 535.558 358.342L533.174 358.061ZM529.388 341.623C525.396 328.983 520.424 313.241 525.164 302.831L527.359 303.835C523.005 313.399 527.821 328.648 531.687 340.891L529.388 341.623ZM525.164 302.831C526.247 300.452 528.332 296.669 530.2 294.597L531.983 296.211C530.311 298.066 528.381 301.593 527.359 303.835L525.164 302.831ZM530.2 294.597C530.851 293.876 531.512 293.328 532.153 293.055L533.082 295.27C532.797 295.391 532.417 295.731 531.983 296.211L530.2 294.597ZM532.153 293.055C533.132 292.639 534.013 292.767 534.73 293.63L532.881 295.16C532.797 295.059 533.133 295.248 533.082 295.27L532.153 293.055ZM534.73 293.63C535.142 294.124 535.44 294.892 535.589 295.99L533.205 296.309C533.119 295.681 533.009 295.314 532.881 295.16L534.73 293.63ZM535.589 295.99L535.592 296.014L533.208 296.333L533.205 296.309L535.589 295.99ZM535.592 296.014C536.213 300.543 538.856 307.81 541.496 315.062L539.234 315.879C536.552 308.506 533.864 301.12 533.208 296.333L535.592 296.014ZM541.496 315.062C544.313 322.804 547.125 330.533 547.58 335.232L545.178 335.448C544.751 331.04 541.994 323.465 539.234 315.879L541.496 315.062ZM547.58 335.232C547.599 335.427 547.402 336.001 547.27 336.147L546.378 335.34L547.58 335.232ZM547.27 336.147C544.806 338.864 544.043 342.588 543.301 346.21L540.936 345.741C541.743 341.799 542.574 337.745 545.487 334.533L547.27 336.147ZM543.301 346.21C543.26 346.407 543.219 346.605 543.179 346.801L540.814 346.332C540.854 346.136 540.895 345.938 540.936 345.741L543.301 346.21ZM543.085 347.074C542.583 348.151 540.575 347.492 540.814 346.332L541.996 346.567L543.085 347.074ZM540.908 346.06L540.911 346.055L543.088 347.068L543.085 347.074L540.908 346.06ZM540.911 346.055C541.86 344.032 542.845 341.882 543.866 339.607L546.061 340.593C545.126 342.679 544.134 344.839 543.088 347.068L540.911 346.055ZM543.866 339.607C544.886 337.335 545.853 335.134 546.764 333.011L548.979 333.94C547.971 336.287 546.998 338.505 546.061 340.593L543.866 339.607ZM546.764 333.011C551.674 321.569 556.344 309.368 560.753 296.384L563.034 297.164C558.629 310.135 553.936 322.387 548.979 333.94L546.764 333.011ZM563.044 297.116L563.034 297.164L561.894 296.774L563.044 297.116ZM560.744 296.432C561.066 295.362 561.388 294.339 561.706 293.387L563.986 294.148C563.64 295.183 563.329 296.167 563.044 297.116L560.744 296.432ZM561.706 293.387C562.033 292.406 562.388 291.409 562.777 290.392L565.02 291.246C564.666 292.17 564.322 293.141 563.986 294.148L561.706 293.387ZM565.048 291.19L565.02 291.246L563.898 290.819L565.048 291.19ZM562.749 290.449C564.07 286.412 565.303 282.52 566.438 278.794L568.737 279.489C567.462 283.678 566.233 287.568 565.048 291.19L562.749 290.449ZM566.438 278.794C567.673 274.741 568.854 270.721 569.973 266.743L572.281 267.381C571.095 271.597 569.914 275.629 568.737 279.489L566.438 278.794ZM569.973 266.743C570.298 265.584 572.544 266.124 572.31 267.296L571.127 267.062L569.973 266.743ZM572.31 267.296C571.768 270.004 571.17 272.774 570.532 275.587L568.186 275.061C568.782 272.432 569.37 269.699 569.944 266.827L572.31 267.296ZM570.532 275.587C569.946 278.172 569.297 280.892 568.607 283.697L566.279 283.125C566.904 280.584 567.539 277.918 568.186 275.061L570.532 275.587ZM568.47 284.026C567.867 285.029 565.999 284.261 566.279 283.125L567.443 283.411L568.47 284.026ZM566.415 282.797C569.162 278.231 572.866 274.224 578.238 271.195L579.412 273.288C574.442 276.09 571.013 279.799 568.47 284.026L566.415 282.797ZM578.238 271.195C583.56 268.194 590.506 266.164 599.762 265.522L599.912 267.925C591.039 268.539 584.43 270.458 579.412 273.288L578.238 271.195ZM599.762 265.522C600.738 265.455 601.388 266.6 600.832 267.404L599.837 266.723L599.762 265.522ZM600.832 267.404C596.641 273.465 593.936 279.568 591.334 285.437L589.12 284.471C591.763 278.509 594.511 272.309 598.842 266.043L600.832 267.404ZM591.334 285.437C585.226 299.222 579.672 311.753 557.1 320.346L556.246 318.103C577.861 309.874 583.222 297.777 589.12 284.471L591.334 285.437ZM555.542 318.816C555.613 318.62 556.051 318.177 556.246 318.103L556.673 319.224L555.542 318.816ZM557.804 319.632C556.226 323.99 554.586 328.239 552.888 332.384L550.664 331.464C552.364 327.313 553.992 323.098 555.542 318.816L557.804 319.632ZM552.888 332.384C551.162 336.6 549.393 340.678 547.588 344.627L545.391 343.623C547.233 339.597 548.993 335.543 550.664 331.464L552.888 332.384ZM547.484 344.791C546.819 345.789 544.897 344.704 545.391 343.623L546.49 344.125L547.484 344.791ZM545.494 343.458C545.53 343.406 545.522 343.418 545.525 343.413L547.477 344.803C547.473 344.808 547.512 344.75 547.484 344.791L545.494 343.458ZM547.482 344.798L547.477 344.803L546.501 344.109L547.482 344.798ZM545.52 343.418C547.202 341.032 548.991 338.668 550.872 336.376L552.721 337.906C550.872 340.159 549.121 342.472 547.482 344.798L545.52 343.418ZM550.872 336.376C552.744 334.093 554.725 331.861 556.797 329.731L558.514 331.402C556.513 333.459 554.575 335.645 552.721 337.906L550.872 336.376ZM556.797 329.731C567.505 318.718 580.379 310.762 593.237 312.461L592.937 314.845C580.945 313.261 568.747 320.878 558.514 331.402L556.797 329.731ZM593.237 312.461C594.107 312.575 594.58 313.614 594.082 314.333L593.087 313.653L593.237 312.461ZM594.082 314.333C590.573 319.407 588.119 324.801 585.752 330.004L583.556 329C585.961 323.714 588.456 318.233 592.093 312.972L594.082 314.333ZM585.752 330.004C578.5 345.945 572.038 360.147 539.225 360.219V357.816C570.476 357.748 576.639 344.203 583.556 329L585.752 330.004ZM538.145 358.483C538.293 358.187 538.893 357.817 539.225 357.816V359.018L538.145 358.483ZM540.304 359.552C540.299 359.563 540.294 359.574 540.217 359.688L538.228 358.355C538.302 358.243 538.142 358.49 538.145 358.483L540.304 359.552ZM538.152 358.468C538.155 358.465 538.226 358.358 538.228 358.355L539.222 359.022L538.152 358.468ZM540.292 359.575C539.603 360.897 538.866 362.283 538.086 363.725L535.965 362.59C536.664 361.297 537.393 359.924 538.152 358.468L540.292 359.575ZM538.086 363.725C537.233 365.303 536.484 366.669 535.841 367.818L533.729 366.645C534.593 365.1 535.34 363.747 535.965 362.59L538.086 363.725ZM535.841 367.818C531.969 374.737 527.878 381.426 523.589 387.892L521.581 386.568C525.788 380.225 529.843 373.588 533.729 366.645L535.841 367.818ZM521.529 386.644C521.53 386.643 521.58 386.57 521.581 386.568L522.585 387.23L521.529 386.644ZM523.641 387.817C523.378 388.29 523.077 388.787 522.731 389.312L520.723 387.989C520.981 387.597 521.251 387.144 521.529 386.644L523.641 387.817ZM522.731 389.312C522.414 389.793 522.07 390.269 521.695 390.737L519.828 389.226C520.136 388.841 520.435 388.426 520.723 387.989L522.731 389.312ZM519.767 389.31C519.768 389.308 519.827 389.227 519.828 389.226L520.762 389.981L519.767 389.31ZM521.757 390.651C518.812 394.992 515.815 399.175 512.774 403.212L510.85 401.766C513.921 397.691 516.897 393.54 519.767 389.31L521.757 390.651ZM512.774 403.212C509.734 407.246 506.593 411.208 503.367 415.102L501.518 413.572C504.665 409.775 507.778 405.843 510.85 401.766L512.774 403.212ZM501.424 413.699C501.427 413.695 501.515 413.576 501.518 413.572L502.442 414.337L501.424 413.699ZM503.461 414.976C501.708 417.797 499.872 420.666 497.804 423.207L495.936 421.695C497.917 419.263 499.709 416.46 501.424 413.699L503.461 414.976ZM497.804 423.207C495.686 425.808 493.336 428.053 490.607 429.535L489.453 427.423C491.882 426.103 494.005 424.068 495.936 421.695L497.804 423.207ZM489.181 427.629C489.197 427.612 489.431 427.434 489.453 427.423L490.029 428.479L489.181 427.629ZM490.879 429.328C490.845 429.362 491.096 429.037 491.022 429.148L489.032 427.815C489.108 427.702 489.144 427.665 489.181 427.629L490.879 429.328ZM491.022 429.148C491.018 429.154 490.91 429.292 490.905 429.298L490.028 428.481L491.022 429.148ZM490.905 429.298C490.751 429.464 490.595 429.637 490.136 430.137L488.372 428.504C488.428 428.443 488.479 428.388 489.15 427.665L490.905 429.298ZM490.136 430.137C489.629 430.69 489.121 431.244 488.822 431.559L487.067 429.908C487.648 429.293 488.01 428.898 488.372 428.504L490.136 430.137ZM486.794 431.076C486.709 430.787 486.861 430.125 487.067 429.908L487.944 430.733L486.794 431.076ZM489.094 430.391C489.117 430.465 489.171 430.63 489.256 430.88L486.975 431.66C486.942 431.561 486.881 431.367 486.794 431.076L489.094 430.391ZM489.256 430.88C489.338 431.124 489.395 431.284 489.422 431.355L487.179 432.209C487.079 431.947 487.011 431.764 486.975 431.66L489.256 430.88ZM489.422 431.355C489.637 431.916 489.285 432.69 488.723 432.904L488.301 431.782L489.422 431.355ZM488.723 432.904C488.369 433.037 487.976 433.213 487.549 433.424L486.48 431.265C486.898 431.058 487.363 430.856 487.878 430.661L488.723 432.904ZM487.549 433.424C487.103 433.645 486.714 433.856 486.378 434.059L485.149 432.004C485.635 431.712 486.081 431.462 486.48 431.265L487.549 433.424ZM484.872 432.225C484.888 432.205 485.126 432.017 485.149 432.004L485.763 433.032L484.872 432.225ZM486.655 433.839C480.626 440.553 474.493 446.796 468.285 452.614L466.634 450.859C472.823 445.059 478.912 438.861 484.872 432.225L486.655 433.839ZM468.285 452.614C462.075 458.434 455.759 463.855 449.368 468.919L447.877 467.032C454.186 462.033 460.447 456.656 466.634 450.859L468.285 452.614ZM447.492 468.37C447.356 467.986 447.56 467.283 447.877 467.032L448.623 467.975L447.492 468.37ZM449.754 467.581L449.781 467.659L447.519 468.447L447.492 468.37L449.754 467.581ZM449.781 467.659C449.976 468.21 449.622 468.966 449.078 469.175L448.65 468.053L449.781 467.659ZM449.078 469.175C448.891 469.246 449.233 469.117 448.897 469.251L448.015 467.008C448.221 466.926 447.907 467.053 448.223 466.932L449.078 469.175ZM448.897 469.251H448.878L448.456 468.129L448.897 469.251ZM448.878 469.251C448.874 469.252 448.862 469.257 448.85 469.261L447.959 467.037C447.981 467.027 448.003 467.019 448.033 467.007L448.878 469.251ZM447.658 467.206C447.677 467.191 447.936 467.046 447.959 467.037L448.405 468.149L447.658 467.206ZM449.151 469.093C437.886 478.002 426.404 485.796 414.87 492.734L413.641 490.679C425.044 483.82 436.433 476.085 447.658 467.206L449.151 469.093ZM414.87 492.734C403.32 499.681 391.79 505.731 380.415 511.161L379.382 508.984C390.774 503.546 402.253 497.528 413.641 490.679L414.87 492.734ZM380.415 511.161C379.794 511.457 378.953 511.086 378.748 510.429L379.898 510.073L380.415 511.161ZM378.748 510.429C377.442 506.233 377.704 501.495 378.868 496.448L381.215 496.992C380.14 501.65 379.883 505.974 381.048 509.716L378.748 510.429ZM378.868 496.448C380.005 491.517 382.004 486.284 384.225 480.974L386.449 481.894C384.272 487.1 382.316 492.218 381.215 496.992L378.868 496.448ZM384.671 480.44C385.588 479.828 386.872 480.882 386.449 481.894L385.336 481.434L384.671 480.44ZM386.003 482.429C385.804 482.562 386.075 482.397 385.946 482.478L384.679 480.422C384.824 480.333 384.488 480.562 384.671 480.44L386.003 482.429ZM384.66 480.436L384.679 480.422L385.313 481.45L384.66 480.436ZM385.965 482.464C383.143 484.274 380.49 486.104 378.019 487.943L376.592 486.009C379.165 484.094 381.859 482.234 384.66 480.436L385.965 482.464ZM378.019 487.943C375.544 489.784 373.196 491.675 370.987 493.606L369.41 491.785C371.623 489.851 374.021 487.922 376.592 486.009L378.019 487.943ZM370.987 493.606C359.838 503.349 352.874 513.645 351.569 523.323L349.185 523.004C350.57 512.722 357.823 501.911 369.41 491.785L370.987 493.606ZM351.569 523.323C351.53 523.61 351.124 524.155 350.86 524.271L350.377 523.163L351.569 523.323ZM350.86 524.271L350.854 524.273L349.887 522.059L349.894 522.056L350.86 524.271ZM350.854 524.273L350.831 524.279L350.371 523.166L350.854 524.273ZM350.831 524.279C342.145 527.891 333.736 531.236 325.556 534.491L324.674 532.248C332.92 528.967 341.399 525.594 349.911 522.054L350.831 524.279ZM325.556 534.491C316.991 537.899 308.67 541.209 300.984 544.432L300.056 542.217C308.173 538.813 316.304 535.578 324.674 532.248L325.556 534.491ZM300.984 544.432C300.826 544.498 300.234 544.501 300.074 544.438L300.52 543.325L300.984 544.432ZM300.074 544.438L300.069 544.435L300.96 542.21L300.966 542.213L300.074 544.438ZM300.069 544.435H300.054L300.514 543.323L300.069 544.435ZM300.054 544.435C292.233 541.155 283.99 537.876 275.503 534.5L276.385 532.257C284.817 535.611 293.009 538.87 300.974 542.21L300.054 544.435ZM275.503 534.5C267.313 531.241 258.895 527.892 250.202 524.276L251.121 522.051C259.643 525.596 268.13 528.972 276.385 532.257L275.503 534.5ZM250.202 524.276C249.926 524.161 249.509 523.61 249.469 523.314L250.662 523.164L250.202 524.276ZM249.469 523.314L249.466 523.297L251.851 522.997L251.853 523.014L249.469 523.314ZM251.851 522.987L251.851 522.997L250.659 523.147L251.851 522.987ZM249.467 523.306C249.213 521.43 248.753 519.544 248.097 517.66L250.359 516.872C251.078 518.939 251.58 520.982 251.851 522.987L249.467 523.306ZM248.097 517.66C247.439 515.77 246.569 513.841 245.499 511.885L247.611 510.731C248.721 512.761 249.642 514.811 250.359 516.872L248.097 517.66ZM245.499 511.885C239.992 501.82 229.347 491.616 215.05 482.448L216.355 480.421C230.98 489.799 241.906 500.305 247.611 510.731L245.499 511.885ZM214.591 481.895C214.167 480.881 215.432 479.829 216.355 480.421L215.703 481.435L214.591 481.895ZM216.815 480.975C219.034 486.285 221.032 491.518 222.168 496.448L219.823 496.992C218.721 492.218 216.765 487.1 214.591 481.895L216.815 480.975ZM222.168 496.448C223.332 501.495 223.596 506.233 222.291 510.43L219.991 509.716C221.154 505.975 220.896 501.651 219.823 496.992L222.168 496.448ZM222.291 510.43C222.086 511.087 221.245 511.458 220.625 511.161L221.141 510.073L222.291 510.43ZM220.625 511.161C209.249 505.732 197.72 499.682 186.17 492.734L187.399 490.679C198.786 497.529 210.265 503.546 221.657 508.984L220.625 511.161ZM186.169 492.734C174.633 485.797 163.152 478.003 151.885 469.093L153.377 467.206C164.605 476.086 175.994 483.82 187.398 490.679L186.169 492.734ZM153.072 467.028C153.096 467.038 153.357 467.19 153.377 467.206L152.63 468.15L153.072 467.028ZM152.189 469.271C151.596 469.039 152.446 469.367 152.109 469.231L153 467.007C153.286 467.122 152.426 466.776 153.072 467.028L152.189 469.271ZM152.109 469.231C152.101 469.229 152.123 469.238 151.977 469.184L152.794 466.923C152.821 466.932 152.884 466.96 153 467.007L152.109 469.231ZM151.977 469.184C151.473 469.001 151.092 468.29 151.222 467.768L152.386 468.054L151.977 469.184ZM151.222 467.768C151.244 467.68 151.255 467.639 151.258 467.631L153.52 468.457C153.519 468.459 153.57 468.258 153.549 468.34L151.222 467.768ZM153.538 468.391C153.538 468.392 153.52 468.457 153.52 468.457L152.389 468.044L153.538 468.391ZM151.239 467.697C151.375 467.25 151.266 467.608 151.268 467.605L153.529 468.431C153.524 468.446 153.669 467.961 153.538 468.391L151.239 467.697ZM151.268 467.605L151.286 467.572L152.399 468.018L151.268 467.605ZM151.286 467.572C151.307 467.52 151.234 467.724 151.24 467.699L153.586 468.253C153.574 468.306 153.544 468.383 153.511 468.463L151.286 467.572ZM153.159 467.032C153.433 467.25 153.668 467.913 153.586 468.253L152.413 467.976L153.159 467.032ZM151.667 468.919C145.279 463.856 138.964 458.434 132.754 452.614L134.405 450.859C140.591 456.656 146.852 462.033 153.159 467.032L151.667 468.919ZM132.754 452.614C126.546 446.796 120.413 440.553 114.384 433.839L116.167 432.225C122.127 438.861 128.216 445.059 134.405 450.859L132.754 452.614ZM115.89 432.005C115.913 432.018 116.15 432.206 116.167 432.225L115.276 433.032L115.89 432.005ZM114.661 434.06C114.324 433.858 113.935 433.647 113.486 433.424L114.555 431.266C114.95 431.461 115.399 431.711 115.89 432.005L114.661 434.06ZM113.486 433.424C113.069 433.218 112.676 433.043 112.312 432.904L113.165 430.661C113.666 430.852 114.128 431.054 114.555 431.266L113.486 433.424ZM112.312 432.904C111.744 432.688 111.398 431.904 111.617 431.342L112.738 431.783L112.312 432.904ZM111.617 431.342C111.689 431.156 111.744 431.008 111.783 430.89L114.064 431.651C113.986 431.881 113.917 432.077 113.86 432.224L111.617 431.342ZM111.783 430.89C111.846 430.704 111.898 430.539 111.944 430.386L114.244 431.081C114.179 431.294 114.118 431.488 114.064 431.651L111.783 430.89ZM113.943 429.885C114.167 430.109 114.336 430.778 114.244 431.081L113.094 430.734L113.943 429.885ZM112.244 431.583L112.242 431.58L113.94 429.882L113.943 429.885L112.244 431.583ZM112.242 431.58L112.214 431.557L113.091 430.731L112.242 431.58ZM112.214 431.557C111.848 431.17 111.279 430.55 110.705 429.924L112.469 428.292C112.893 428.754 113.327 429.226 113.969 429.905L112.214 431.557ZM110.705 429.924C110.512 429.714 110.319 429.504 110.126 429.295L111.89 427.662C112.083 427.871 112.276 428.082 112.469 428.292L110.705 429.924ZM111.581 427.423C111.609 427.438 111.869 427.639 111.89 427.662L111.008 428.479L111.581 427.423ZM110.436 429.535C107.699 428.049 105.348 425.806 103.233 423.207L105.101 421.695C107.033 424.071 109.155 426.106 111.581 427.423L110.436 429.535ZM103.233 423.207C101.165 420.666 99.3313 417.797 97.5788 414.976L99.6152 413.699C101.33 416.461 103.121 419.263 105.101 421.695L103.233 423.207ZM99.5214 413.572C99.5241 413.576 99.6129 413.695 99.6152 413.699L98.5973 414.337L99.5214 413.572ZM97.6723 415.102C94.445 411.209 91.304 407.246 88.2633 403.212L90.1867 401.766C93.259 405.843 96.3738 409.774 99.5214 413.572L97.6723 415.102ZM88.2633 403.212C85.2212 399.175 82.224 394.992 79.2813 390.651L81.2704 389.31C84.1388 393.54 87.1154 397.691 90.1867 401.766L88.2633 403.212ZM81.2099 389.225C81.2107 389.226 81.2701 389.308 81.2704 389.31L80.2757 389.981L81.2099 389.225ZM79.3417 390.736C78.9676 390.268 78.6236 389.792 78.3073 389.312L80.3153 387.988C80.6033 388.426 80.9015 388.84 81.2099 389.225L79.3417 390.736ZM78.3073 389.312C77.9604 388.786 77.6588 388.289 77.3957 387.816L79.5077 386.643C79.7866 387.143 80.0572 387.597 80.3153 387.988L78.3073 389.312ZM79.437 386.54C79.4383 386.542 79.5061 386.641 79.5077 386.643L78.4517 387.229L79.437 386.54ZM77.4663 387.919L77.4637 387.915L79.4343 386.536L79.437 386.54L77.4663 387.919ZM77.4637 387.915L77.4444 387.887L78.449 387.226L77.4637 387.915ZM77.4444 387.887C76.5472 386.535 75.7243 385.277 74.9755 384.112L77.0029 382.807C77.8802 384.172 78.6981 385.426 79.4529 386.564L77.4444 387.887ZM74.9755 384.112C74.2507 382.984 73.4416 381.702 72.5525 380.273L74.589 378.996C75.2988 380.136 76.1022 381.406 77.0029 382.807L74.9755 384.112ZM72.5525 380.273C68.4113 373.617 64.4662 366.718 60.7374 359.57L62.877 358.463C66.6002 365.598 70.5105 372.44 74.589 378.996L72.5525 380.273ZM61.807 357.816C62.1294 357.816 62.7283 358.178 62.877 358.463L61.807 359.017V357.816ZM61.807 360.218C29.0004 360.146 22.5369 345.944 15.2837 330.002L17.4795 328.998C24.3972 344.202 30.5613 357.748 61.807 357.816V360.218ZM15.2837 330.002C12.9165 324.8 10.4617 319.406 6.95395 314.332L8.94315 312.971C12.5801 318.232 15.0742 323.713 17.4795 328.998L15.2837 330.002ZM6.95395 314.332C6.45689 313.614 6.92968 312.575 7.79821 312.46L7.94875 313.652L6.95395 314.332ZM7.79821 312.46L7.81569 312.457L8.11582 314.841L8.09875 314.844L7.79821 312.46ZM7.81569 312.457C10.3461 312.125 12.8742 312.165 15.382 312.527L15.0437 314.911C12.7343 314.577 10.4178 314.539 8.11582 314.841L7.81569 312.457ZM15.382 312.527C17.8782 312.887 20.3645 313.569 22.8203 314.522L21.9576 316.765C19.6762 315.88 17.3658 315.246 15.0437 314.911L15.382 312.527ZM22.8203 314.522C35.249 319.342 46.8797 331.155 55.5281 343.434L53.5669 344.813C45.151 332.866 33.8918 321.393 21.9576 316.765L22.8203 314.522ZM55.6452 343.622C56.14 344.702 54.2554 345.792 53.5669 344.813L54.5477 344.123L55.6452 343.622ZM53.4497 344.625C51.6427 340.677 49.8738 336.598 48.1474 332.383L50.3717 331.463C52.0426 335.542 53.803 339.596 55.6452 343.622L53.4497 344.625ZM48.1474 332.383C46.4493 328.238 44.8082 323.99 43.2294 319.631L45.4916 318.815C47.0422 323.096 48.6713 327.311 50.3717 331.463L48.1474 332.383ZM44.7878 318.101C44.9821 318.175 45.4209 318.619 45.4916 318.815L44.3603 319.223L44.7878 318.101ZM43.9331 320.344C21.3634 311.752 15.8094 299.22 9.70048 285.437L11.9153 284.47C17.8121 297.776 23.1738 309.873 44.7878 318.101L43.9331 320.344ZM9.70048 285.437C7.10021 279.567 4.39448 273.464 0.204484 267.403L2.19356 266.042C6.52529 272.307 9.27381 278.507 11.9153 284.47L9.70048 285.437ZM0.204484 267.403C-0.351116 266.599 0.298624 265.454 1.27449 265.521L1.19928 266.722L0.204484 267.403ZM1.27449 265.521C10.5309 266.162 17.4758 268.192 22.7977 271.194L21.6245 273.287C16.6057 270.457 9.99689 268.538 1.12369 267.923L1.27449 265.521ZM22.7977 271.194C28.17 274.223 31.8738 278.23 34.6193 282.795L32.564 284.024C30.0226 279.799 26.5942 276.089 21.6245 273.287L22.7977 271.194ZM34.7558 283.124C35.0347 284.26 33.1676 285.028 32.564 284.024L33.5921 283.41L34.7558 283.124ZM32.4284 283.696C31.7386 280.888 31.0889 278.165 30.5042 275.585L32.8501 275.06C33.4988 277.922 34.1325 280.587 34.7558 283.124L32.4284 283.696ZM30.5042 275.585C29.8669 272.774 29.2698 270.003 28.7301 267.295L31.0953 266.826C31.6676 269.697 32.2549 272.43 32.8501 275.06L30.5042 275.585ZM28.7301 267.295C28.4965 266.123 30.7416 265.583 31.0666 266.741L29.9123 267.06L28.7301 267.295ZM31.0666 266.741C32.1845 270.722 33.3645 274.741 34.5993 278.793L32.2994 279.488C31.1233 275.626 29.9421 271.594 28.7581 267.379L31.0666 266.741ZM34.5993 278.793C35.7342 282.522 36.9686 286.413 38.2893 290.447L35.9898 291.189C34.8034 287.564 33.5742 283.674 32.2994 279.488L34.5993 278.793ZM36.0177 291.245L35.9898 291.189L37.1395 290.818L36.0177 291.245ZM38.2605 290.391C38.6484 291.41 39.0025 292.407 39.3294 293.386L37.0487 294.146C36.7121 293.138 36.3685 292.166 36.0177 291.245L38.2605 290.391ZM39.3294 293.386C39.6469 294.335 39.9693 295.357 40.2939 296.43L37.9945 297.115C37.7083 296.17 37.3958 295.185 37.0487 294.146L39.3294 293.386ZM38.0036 297.144L37.9945 297.115L39.144 296.773L38.0036 297.144ZM40.2845 296.402L40.2871 296.409L38.0062 297.15L38.0036 297.144L40.2845 296.402ZM38.0058 297.169L38.0062 297.15L39.1465 296.78L38.0058 297.169ZM40.2868 296.39C41.252 299.236 42.116 301.73 42.8776 303.872L40.6163 304.66C39.6238 301.869 38.753 299.37 38.0058 297.169L40.2868 296.39ZM42.8776 303.872C43.6562 306.062 44.5436 308.493 45.5402 311.169L43.279 311.995C42.4799 309.851 41.5914 307.402 40.6163 304.66L42.8776 303.872ZM45.5402 311.169C50.1521 323.554 55.0216 335.176 60.13 346.059L57.9534 347.073C52.797 336.088 47.8987 324.403 43.279 311.995L45.5402 311.169ZM60.2245 346.331C60.4637 347.491 58.4584 348.149 57.9534 347.073L59.0416 346.566L60.2245 346.331ZM57.8593 346.801C57.8181 346.6 57.7753 346.398 57.7341 346.196L60.0998 345.727C60.141 345.928 60.1833 346.13 60.2245 346.331L57.8593 346.801ZM57.7341 346.196C56.9904 342.579 56.225 338.86 53.7641 336.146L55.5473 334.532C58.4563 337.741 59.289 341.789 60.0998 345.727L57.7341 346.196ZM53.7641 336.146C53.6318 336 53.4361 335.426 53.455 335.231L54.6557 335.339L53.7641 336.146ZM53.455 335.231L53.4577 335.208L55.86 335.424L55.8573 335.447L53.455 335.231ZM53.4577 335.208V335.198L54.6583 335.315L53.4577 335.208ZM53.4577 335.198C53.9191 330.508 56.7285 322.791 59.5419 315.061L61.8032 315.878C59.0468 323.45 56.2945 331.011 55.86 335.433L53.4577 335.198ZM59.5419 315.061C62.1869 307.796 64.8362 300.517 65.4511 295.988L67.8353 296.307C67.1857 301.093 64.4916 308.492 61.8032 315.878L59.5419 315.061ZM65.4511 295.988C65.5994 294.891 65.8976 294.122 66.31 293.628L68.1589 295.158C68.0308 295.311 67.92 295.679 67.8353 296.307L65.4511 295.988ZM66.31 293.628C67.0273 292.764 67.908 292.638 68.8849 293.054L67.9559 295.269C67.9049 295.247 68.2432 295.056 68.1589 295.158L66.31 293.628ZM68.8849 293.054C69.5264 293.327 70.187 293.874 70.8374 294.595L69.0538 296.209C68.6211 295.729 68.2413 295.39 67.9559 295.269L68.8849 293.054ZM70.8374 294.595C72.6996 296.661 74.7874 300.452 75.8717 302.839L73.6758 303.825C72.6606 301.59 70.7327 298.07 69.0538 296.209L70.8374 294.595ZM73.6758 303.834V303.825L74.7742 303.332L73.6758 303.834ZM75.8717 302.83L75.8857 302.861L73.6902 303.864L73.6758 303.834L75.8717 302.83ZM75.8857 302.861V302.87L74.7882 303.363L75.8857 302.861ZM75.8857 302.87C80.5991 313.278 75.6366 328.995 71.6503 341.62L69.3509 340.888C73.2136 328.654 78.0224 313.423 73.6902 303.856L75.8857 302.87ZM71.6503 341.62C69.3982 348.752 67.4683 354.865 67.8671 358.078L65.483 358.36C65.0181 354.611 67.0174 348.278 69.3509 340.888L71.6503 341.62ZM67.8671 358.078C67.9747 358.95 67.0757 359.652 66.2529 359.34L66.6746 358.219L67.8671 358.078ZM66.2529 359.34C65.6516 359.113 65.1172 358.869 64.6436 358.611L65.7978 356.499C66.2185 356.728 66.6509 356.929 67.0968 357.097L66.2529 359.34ZM64.6436 358.611C64.1549 358.346 63.696 358.049 63.2637 357.728L64.69 355.794C65.0234 356.042 65.3912 356.278 65.7978 356.499L64.6436 358.611ZM62.9069 357.301C62.3951 356.285 63.78 355.117 64.69 355.794L63.9767 356.761L62.9069 357.301ZM65.0467 356.221C66.1251 358.36 67.2135 360.471 68.3119 362.556L66.1909 363.673C65.0896 361.581 63.9946 359.458 62.9069 357.301L65.0467 356.221ZM68.3119 362.556C69.3187 364.469 70.427 366.526 71.6345 368.726L69.5225 369.88C68.4934 368.005 67.3837 365.938 66.1909 363.673L68.3119 362.556ZM71.7801 369.439C71.6545 370.524 70.0501 370.842 69.5225 369.88L70.5785 369.303L71.7801 369.439ZM69.3778 369.167L69.3805 369.147L71.7828 369.419L71.7801 369.439L69.3778 369.167ZM69.3805 369.147C70.043 363.395 71.401 354.598 72.6383 346.582L75.0225 346.948C73.799 354.875 72.4562 363.574 71.7828 369.419L69.3805 369.147ZM72.6383 346.582C73.4627 341.242 74.2349 336.244 74.6858 332.926L77.0696 333.245C76.5653 336.955 75.8193 341.787 75.0225 346.948L72.6383 346.582ZM74.6858 332.926C75.0074 330.532 75.9379 329.686 77.2554 329.864L76.9369 332.248C76.7732 332.226 77.1617 332.558 77.0696 333.245L74.6858 332.926ZM77.2554 329.864C79.0254 330.102 81.0033 333.293 82.8556 336.284L80.8002 337.551C79.2364 335.027 77.5673 332.333 76.9369 332.248L77.2554 329.864ZM82.8556 336.284C83.6345 337.541 84.3909 338.761 84.9739 339.557L83.0403 340.983C82.3086 339.985 81.566 338.786 80.8002 337.551L82.8556 336.284ZM84.9739 339.557L84.9833 339.566L84.0074 340.27L84.9739 339.557ZM84.9833 339.566C84.9886 339.573 84.9926 339.579 84.994 339.58L83.0702 341.025C83.0539 341.003 83.0426 340.988 83.032 340.973L84.9833 339.566ZM84.994 339.58L84.9993 339.589L84.0325 340.302L84.994 339.58ZM84.9993 339.589C93.8622 351.707 90.8292 369.079 88.6197 381.737L86.2545 381.333C88.3902 369.098 91.3224 352.304 83.0657 341.015L84.9993 339.589ZM88.6197 381.737C87.7009 387 86.9292 391.421 87.258 394.092L84.8738 394.374C84.503 391.364 85.3024 386.785 86.2545 381.333L88.6197 381.737ZM87.258 394.092C87.3657 394.969 86.4578 395.672 85.6338 395.354L86.0654 394.233L87.258 394.092ZM85.6338 395.354C85.4414 395.28 85.2978 395.224 85.2125 395.188L86.1319 392.964C86.307 393.036 86.4261 393.084 86.4972 393.112L85.6338 395.354ZM85.2125 395.188C84.9705 395.089 84.8246 395.028 84.7989 395.017L85.7657 392.802C85.9989 392.905 86.1134 392.956 86.1319 392.964L85.2125 395.188ZM84.2781 394.566C83.6697 393.637 84.7574 392.355 85.7657 392.802L85.2827 393.91L84.2781 394.566ZM86.2866 393.253C87.2534 394.728 88.3412 396.35 89.528 398.091L87.5384 399.451C86.5466 397.996 85.4653 396.378 84.2781 394.566L86.2866 393.253ZM89.528 398.091C90.7684 399.911 91.8501 401.474 92.7984 402.82L90.8368 404.2C89.585 402.422 88.4761 400.827 87.5384 399.451L89.528 398.091ZM92.9673 403.876C92.6732 404.79 91.3932 404.99 90.8368 404.2L91.8176 403.51L92.9673 403.876ZM90.6678 403.144C91.8493 399.468 92.2571 392.718 92.3043 385.523L94.7066 385.533C94.6574 392.958 94.2252 399.963 92.9673 403.876L90.6678 403.144ZM92.3043 385.523C92.3515 378.261 92.0285 370.526 91.7615 365.001L94.1638 364.888C94.4308 370.42 94.7546 378.176 94.7066 385.533L92.3043 385.523ZM91.7615 365.001C91.5825 361.311 92.2518 359.883 93.7236 359.812L93.8362 362.215C93.7042 362.221 94.0694 362.94 94.1638 364.888L91.7615 365.001ZM93.7236 359.812C94.9176 359.754 96.161 360.961 97.8209 362.573L96.1504 364.29C94.924 363.099 94.0035 362.207 93.8362 362.215L93.7236 359.812ZM97.8209 362.573C98.0878 362.831 98.3697 363.105 98.6898 363.411L97.0386 365.147C96.7468 364.869 96.4422 364.574 96.1504 364.29L97.8209 362.573ZM98.6898 363.411H98.6952L97.864 364.279L98.6898 363.411ZM98.6952 363.411L98.7246 363.439L97.0632 365.176L97.0337 365.147L98.6952 363.411ZM98.7246 363.439C112.597 376.718 113.224 402.895 113.619 419.388L111.216 419.434C110.831 403.329 110.219 377.768 97.0632 365.176L98.7246 363.439ZM113.619 419.388C113.712 423.307 113.793 426.665 114.049 429.206L111.647 429.441C111.396 426.958 111.313 423.487 111.216 419.434L113.619 419.388ZM114.049 429.206C114.136 430.07 113.249 430.76 112.434 430.454L112.847 429.324L114.049 429.206ZM112.434 430.454L112.428 430.452L113.254 428.19L113.26 428.193L112.434 430.454ZM112.428 430.452L112.418 430.442L112.841 429.321L112.428 430.452ZM112.418 430.442C112.036 430.298 112.436 430.458 112.2 430.365L113.082 428.123C113.45 428.268 113.014 428.106 113.262 428.2L112.418 430.442ZM112.2 430.365C112.18 430.357 112.101 430.325 111.983 430.276L112.903 428.051C112.916 428.057 112.971 428.079 113.082 428.123L112.2 430.365ZM111.983 430.276C111.641 430.136 111.284 429.97 110.912 429.78L112 427.64C112.268 427.777 112.571 427.915 112.903 428.051L111.983 430.276ZM110.537 429.493C109.785 428.617 110.965 427.112 112 427.64L111.456 428.71L110.537 429.493ZM112.375 427.926L112.378 427.929L110.539 429.496L110.537 429.493L112.375 427.926ZM110.548 429.501L110.539 429.496L111.458 428.712L110.548 429.501ZM112.368 427.924C112.988 428.639 113.008 428.66 113.08 428.744L111.241 430.311C110.702 429.683 110.697 429.673 110.548 429.501L112.368 427.924ZM113.08 428.744C113.539 429.278 114.011 429.826 114.029 429.847L112.208 431.424C111.586 430.713 111.42 430.52 111.241 430.311L113.08 428.744ZM114.272 430.955C114.025 431.855 112.818 432.123 112.208 431.424L113.118 430.636L114.272 430.955ZM111.964 430.317C112.011 430.144 111.961 430.321 111.973 430.275L114.282 430.931C114.263 430.999 114.326 430.76 114.272 430.955L111.964 430.317ZM111.973 430.275C113.648 424.477 113.028 414.393 112.457 405.111L114.86 404.98C115.442 414.445 116.074 424.729 114.282 430.931L111.973 430.275ZM112.457 405.111C112.32 402.896 112.187 400.724 112.086 398.609L114.488 398.497C114.585 400.528 114.721 402.731 114.86 404.98L112.457 405.111ZM112.086 398.609C111.906 394.92 112.576 393.493 114.048 393.421L114.16 395.823C114.03 395.83 114.393 396.548 114.488 398.497L112.086 398.609ZM114.048 393.421C115.244 393.363 116.487 394.571 118.148 396.183L116.477 397.9C115.25 396.708 114.329 395.815 114.16 395.823L114.048 393.421ZM118.148 396.183C118.414 396.441 118.69 396.71 119.015 397.019L117.363 398.756C117.077 398.483 116.768 398.183 116.477 397.9L118.148 396.183ZM119.015 397.019C127.628 405.238 132.64 416.465 135.658 427.26L133.349 427.898C130.43 417.457 125.609 406.623 117.363 398.756L119.015 397.019ZM135.658 427.26C138.668 438.027 139.693 448.267 140.334 454.684L137.931 454.918C137.294 448.543 136.277 438.368 133.349 427.898L135.658 427.26ZM140.334 454.684C140.42 455.548 139.521 456.233 138.706 455.923L139.133 454.801L140.334 454.684ZM138.706 455.923C138.343 455.785 137.991 455.634 137.649 455.475L138.663 453.298C138.967 453.439 139.266 453.568 139.559 453.68L138.706 455.923ZM137.649 455.475C137.275 455.3 136.931 455.125 136.615 454.953L137.769 452.841C138.092 453.017 138.391 453.171 138.663 453.298L137.649 455.475ZM136.404 454.808C135.51 454.025 136.724 452.272 137.769 452.841L137.192 453.898L136.404 454.808ZM137.981 452.987C140.631 455.309 143.202 457.505 145.699 459.583L144.169 461.432C141.476 459.19 138.884 456.981 136.404 454.808L137.981 452.987ZM145.699 459.583C148.229 461.687 150.834 463.8 153.511 465.919L152.019 467.806C149.446 465.769 146.83 463.646 144.169 461.432L145.699 459.583ZM153.929 467.148C153.723 467.972 152.682 468.331 152.019 467.806L152.765 466.862L153.929 467.148ZM151.601 466.576C151.611 466.537 151.604 466.554 151.613 466.525L153.922 467.182C153.913 467.216 153.937 467.115 153.929 467.148L151.601 466.576ZM153.931 467.149L153.922 467.182L152.768 466.854L153.931 467.149ZM151.604 466.558C151.89 465.439 152.044 464.134 152.086 462.691L154.489 462.756C154.441 464.369 154.263 465.85 153.931 467.149L151.604 466.558ZM152.086 462.691C152.128 461.243 152.051 459.626 151.877 457.895L154.279 457.66C154.457 459.436 154.535 461.148 154.489 462.756L152.086 462.691ZM151.877 457.895C150.981 448.997 147.487 437.739 144.377 430.311L146.601 429.391C149.783 436.99 153.36 448.523 154.279 457.66L151.877 457.895ZM144.377 430.311C143.952 429.297 145.218 428.244 146.142 428.837L145.489 429.851L144.377 430.311ZM146.142 428.837L146.174 428.858L144.869 430.886L144.836 430.865L146.142 428.837ZM146.174 428.858C149.09 430.731 151.799 432.901 154.307 435.286L152.656 437.023C150.29 434.772 147.698 432.702 144.869 430.886L146.174 428.858ZM154.307 435.286C156.792 437.65 159.059 440.217 161.118 442.909L159.212 444.363C157.228 441.768 155.045 439.296 152.656 437.023L154.307 435.286ZM161.118 442.909C171.667 456.706 176.78 473.871 177.815 484.179L175.413 484.413C174.407 474.408 169.447 457.748 159.212 444.363L161.118 442.909ZM177.815 484.179C177.902 485.043 177.003 485.729 176.187 485.418L176.614 484.296L177.815 484.179ZM176.187 485.418C175.865 485.295 175.911 485.316 175.81 485.276L176.693 483.033C177.033 483.169 176.964 483.145 177.041 483.175L176.187 485.418ZM175.81 485.276C175.733 485.246 175.613 485.196 175.432 485.122L176.352 482.897C176.411 482.921 176.53 482.969 176.693 483.033L175.81 485.276ZM175.207 484.995C174.23 484.316 175.257 482.443 176.352 482.897L175.892 484.009L175.207 484.995ZM176.578 483.024C178.108 484.087 179.621 485.127 181.118 486.143L179.776 488.132C178.235 487.086 176.711 486.039 175.207 484.995L176.578 483.024ZM181.118 486.143C182.48 487.068 184 488.088 185.667 489.196L184.343 491.204C182.971 490.292 181.45 489.269 179.776 488.132L181.118 486.143ZM186.113 490.664C185.833 491.317 184.934 491.596 184.343 491.204L185.006 490.2L186.113 490.664ZM183.898 489.735C183.91 489.707 183.838 489.917 183.854 489.863L186.163 490.52C186.146 490.579 186.127 490.63 186.113 490.664L183.898 489.735ZM183.854 489.863C183.854 489.862 183.886 489.771 183.887 489.769L185.008 490.191L183.854 489.863ZM183.887 489.769C184.286 488.719 184.591 487.574 184.81 486.354L187.175 486.777C186.934 488.12 186.588 489.405 186.13 490.614L183.887 489.769ZM184.81 486.354C185.03 485.13 185.159 483.839 185.205 482.498L187.607 482.564C187.558 484.027 187.416 485.437 187.175 486.777L184.81 486.354ZM185.205 482.498C185.447 475.465 183.427 467.044 180.199 459.326L182.424 458.406C185.769 466.405 187.862 475.178 187.607 482.564L185.205 482.498ZM180.199 459.326C179.776 458.312 181.042 457.259 181.964 457.852L181.312 458.866L180.199 459.326ZM181.964 457.852L181.997 457.874L180.692 459.901L180.66 459.88L181.964 457.852ZM181.997 457.874C184.898 459.736 187.589 461.732 190.076 463.827L188.528 465.666C186.142 463.657 183.534 461.725 180.692 459.901L181.997 457.874ZM190.076 463.827C192.551 465.912 194.813 468.088 196.867 470.322L195.103 471.955C193.115 469.792 190.925 467.686 188.528 465.666L190.076 463.827ZM196.867 470.322C207.458 481.841 212.594 494.937 213.639 505.313L211.236 505.547C210.236 495.608 205.296 483.041 195.103 471.955L196.867 470.322ZM213.639 505.313C213.726 506.175 212.831 506.861 212.016 506.552L212.438 505.43L213.639 505.313ZM212.016 506.552C206.928 504.622 202.495 501.741 198.062 498.861L199.367 496.834C203.724 499.665 208.082 502.497 212.86 504.309L212.016 506.552ZM198.062 498.861C193.792 496.087 189.522 493.311 184.838 491.492L185.701 489.249C190.658 491.175 195.013 494.005 199.367 496.834L198.062 498.861ZM184.608 491.375C183.618 490.718 184.593 488.819 185.701 489.249L185.269 490.371L184.608 491.375ZM185.931 489.366C189.508 491.741 193.061 494.04 196.588 496.271L195.312 498.307C191.719 496.035 188.148 493.725 184.608 491.375L185.931 489.366ZM196.588 496.271C200.199 498.555 203.748 500.748 207.237 502.863L205.998 504.918C202.388 502.73 198.819 500.526 195.312 498.307L196.588 496.271ZM207.237 502.863C208.262 503.483 207.166 505.498 206.092 504.97L206.618 503.89L207.237 502.863ZM206.092 504.97C196.485 500.247 186.318 499.293 175.8 500.783L175.481 498.399C186.44 496.847 197.062 497.855 207.143 502.811L206.092 504.97ZM175.8 500.783C165.214 502.282 154.235 506.27 143.099 511.393L142.096 509.197C153.402 503.996 164.592 499.94 175.481 498.399L175.8 500.783ZM141.893 511.271C141.164 510.744 141.28 509.572 142.096 509.197L142.597 510.295L141.893 511.271ZM143.301 509.319C155.518 518.14 167.415 524.291 180.146 525.873L179.864 528.257C166.651 526.615 154.409 520.307 141.893 511.271L143.301 509.319ZM180.146 525.873C192.863 527.455 206.494 524.496 222.224 515.113L223.453 517.169C207.214 526.855 193.09 529.902 179.864 528.257L180.146 525.873ZM223.739 515.343C224.212 515.874 224.066 516.803 223.453 517.169L222.839 516.141L223.739 515.343ZM221.938 516.939L221.934 516.936L223.736 515.34L223.739 515.343L221.938 516.939ZM223.713 515.312L223.736 515.34L222.836 516.138L223.713 515.312ZM221.958 516.963C221.481 516.458 221.076 516.038 220.738 515.698L222.437 514C222.934 514.499 223.362 514.939 223.713 515.312L221.958 516.963ZM220.738 515.698C220.277 515.235 219.864 514.829 219.504 514.486L221.156 512.749C221.637 513.207 222.062 513.624 222.437 514L220.738 515.698ZM219.504 514.486C217.383 512.461 215.225 510.68 213.039 509.125L214.428 507.174C216.708 508.795 218.953 510.648 221.156 512.749L219.504 514.486ZM213.011 509.111C212.053 508.393 213.448 506.477 214.428 507.174L213.734 508.15L213.011 509.111ZM214.456 507.188C214.468 507.197 214.31 507.099 214.353 507.125L213.124 509.18C213.077 509.152 213.026 509.122 213.011 509.111L214.456 507.188ZM213.129 509.19L213.124 509.18L213.739 508.153L213.129 509.19ZM214.349 507.115C231.6 517.307 248.54 526.421 264.443 534.977L263.307 537.098C247.376 528.527 230.405 519.396 213.129 509.19L214.349 507.115ZM264.443 534.977C272.846 539.498 280.969 543.868 288.196 547.876L287.022 549.988C279.114 545.602 271.346 541.423 263.307 537.098L264.443 534.977ZM288.196 547.876C289.035 548.342 288.98 549.633 288.102 550.03L287.609 548.932L288.196 547.876ZM288.102 550.03C276.635 555.222 266.036 560.691 256.598 566.927L255.275 564.919C264.836 558.601 275.545 553.074 287.116 547.834L288.102 550.03ZM256.598 566.927C247.189 573.145 238.93 580.128 232.116 588.364L230.267 586.834C237.252 578.392 245.685 571.256 255.275 564.919L256.598 566.927ZM229.99 587.491C230 587.387 230.2 586.915 230.267 586.834L231.191 587.599L229.99 587.491ZM232.393 587.707C231.91 593.017 232.677 596.992 234.695 599.632L232.791 601.086C230.386 597.941 229.452 593.409 229.99 587.491L232.393 587.707ZM234.695 599.632C236.676 602.221 239.943 603.595 244.495 603.752L244.429 606.154C239.113 605.971 235.234 604.281 232.791 601.086L234.695 599.632ZM245.541 605.487C245.385 605.802 244.782 606.166 244.429 606.154L244.462 604.953L245.541 605.487ZM243.383 604.418C247.994 595.135 255.479 586.701 265.17 578.634L266.7 580.483C257.269 588.333 249.998 596.516 245.541 605.487L243.383 604.418ZM265.17 578.634C274.783 570.632 286.585 562.985 299.918 555.216L301.12 557.291C287.904 564.991 276.211 572.566 266.7 580.483L265.17 578.634ZM299.918 555.216C300.18 555.064 300.857 555.064 301.12 555.216L300.519 556.254L299.918 555.216ZM301.12 555.216C314.452 562.985 326.254 570.632 335.867 578.634L334.338 580.483C324.827 572.567 313.134 564.991 299.918 557.291L301.12 555.216ZM335.867 578.634C345.56 586.702 353.045 595.136 357.657 604.418L355.498 605.487C351.04 596.516 343.769 588.333 334.338 580.483L335.867 578.634ZM356.61 606.154C356.258 606.166 355.655 605.802 355.498 605.487L356.578 604.953L356.61 606.154ZM356.544 603.752C361.094 603.595 364.359 602.221 366.339 599.632L368.244 601.086C365.801 604.281 361.923 605.971 356.61 606.154L356.544 603.752ZM366.339 599.632C368.357 596.992 369.126 593.017 368.646 587.707L371.049 587.491C371.583 593.409 370.648 597.941 368.244 601.086L366.339 599.632ZM370.772 586.834C370.839 586.915 371.039 587.386 371.049 587.491L369.847 587.599L370.772 586.834ZM486.52 433.934L486.517 433.937L484.818 432.239L484.821 432.236L486.52 433.934ZM484.8 432.257L484.818 432.239L485.669 433.087L484.8 432.257ZM486.537 433.918C486.234 434.232 485.678 434.803 484.872 435.626L483.154 433.956C483.454 433.649 484.004 433.082 484.8 432.257L486.537 433.918ZM484.872 435.626C484.11 436.406 483.538 436.989 483.2 437.329L481.502 435.631C482.274 434.852 482.811 434.307 483.154 433.956L484.872 435.626ZM483.2 437.329C480.281 440.275 477.384 443.102 474.512 445.81L472.86 444.055C475.826 441.259 478.709 438.45 481.502 435.631L483.2 437.329ZM474.512 445.81C473.639 446.634 471.99 445.02 472.795 444.126L473.686 444.933L474.512 445.81ZM472.795 444.126L472.797 444.122L474.58 445.736L474.578 445.74L472.795 444.126ZM474.6 445.717L474.58 445.736L473.689 444.929L474.6 445.717ZM472.779 444.141C472.8 444.116 473.468 443.336 474.171 442.517L476.01 444.084C475.78 444.353 475.557 444.613 474.6 445.717L472.779 444.141ZM474.171 442.517C477.611 438.505 481.053 434.492 485.042 432.058L486.299 434.113C482.652 436.339 479.33 440.213 476.01 444.084L474.171 442.517ZM485.042 432.058C486.053 431.441 487.36 433.095 486.52 433.934L485.671 433.085L485.042 432.058ZM443.369 472.207C442.16 473.133 441.611 473.545 441.065 473.956L439.62 472.032C440.606 471.29 441.594 470.548 441.914 470.303L443.369 472.207ZM441.065 473.956L440.444 474.423L438.999 472.499L439.62 472.032L441.065 473.956ZM440.444 474.423C439.485 475.144 438.034 473.286 438.966 472.527L439.721 473.461L440.444 474.423ZM438.966 472.527C439.47 472.117 439.961 471.727 440.432 471.371L441.877 473.294C441.376 473.674 440.913 474.039 440.477 474.395L438.966 472.527ZM440.432 471.371C440.951 470.976 441.463 470.604 441.961 470.26L443.322 472.25C442.808 472.604 442.328 472.952 441.877 473.294L440.432 471.371ZM441.961 470.26C442.947 469.581 444.325 471.476 443.369 472.207L442.642 471.255L441.961 470.26ZM549.417 325.237L549.427 325.217L551.623 326.183L551.614 326.204L549.417 325.237ZM549.427 325.217V325.207L550.525 325.7L549.427 325.217ZM549.427 325.207C551.065 321.589 552.414 317.99 553.476 314.41L555.785 315.086C554.688 318.783 553.301 322.486 551.623 326.193L549.427 325.207ZM553.476 314.41C554.539 310.828 555.315 307.26 555.806 303.709L558.19 304.028C557.682 307.706 556.88 311.393 555.785 315.086L553.476 314.41ZM555.806 303.709C558.333 285.433 553.32 267.452 540.768 249.769L542.719 248.38C555.644 266.588 560.802 285.139 558.19 304.028L555.806 303.709ZM540.748 248.408C541.2 247.732 542.249 247.718 542.719 248.38L541.743 249.075L540.748 248.408ZM542.738 249.741C539.806 254.14 537.436 258.82 535.972 263.947L533.664 263.29C535.199 257.914 537.68 253.012 540.748 248.408L542.738 249.741ZM535.972 263.947C534.516 269.044 533.957 274.607 534.633 280.807L532.231 281.06C531.523 274.563 532.119 268.697 533.664 263.29L535.972 263.947ZM534.633 280.807C534.633 280.807 534.633 280.877 534.633 280.877L533.433 280.934L534.633 280.807ZM534.633 280.877C535.217 291.569 537.307 299.986 540.306 307.028L538.091 307.957C534.99 300.678 532.832 291.995 532.231 280.99L534.633 280.877ZM540.306 307.028C543.3 314.059 547.217 319.744 551.45 324.965L549.582 326.476C545.23 321.107 541.195 315.247 538.091 307.957L540.306 307.028ZM551.614 326.204C551.259 327.001 550.131 327.153 549.582 326.476L550.516 325.721L551.614 326.204ZM562.808 285.52C570.457 268.634 568.696 254.857 566.67 238.991L569.054 238.691C571.127 254.92 572.927 269.013 565.004 286.505L562.808 285.52ZM566.67 238.991C565.595 230.576 564.446 221.581 564.551 211.209L566.954 211.219C566.85 221.436 567.988 230.351 569.054 238.691L566.67 238.991ZM564.758 210.547C565.37 209.629 566.965 210.119 566.954 211.219L565.753 211.214L564.758 210.547ZM566.748 211.88L566.738 211.895L564.748 210.562L564.758 210.547L566.748 211.88ZM566.738 211.895C565.713 213.432 565.063 214.376 564.387 215.356L562.398 213.995C563.364 212.594 564.3 211.235 564.748 210.562L566.738 211.895ZM564.387 215.356C558.637 223.703 551.475 234.099 552.641 244.793L550.239 245.046C548.977 233.476 556.421 222.671 562.398 213.995L564.387 215.356ZM552.641 244.793C552.641 244.793 552.641 244.863 552.641 244.863L551.44 244.919L552.641 244.793ZM552.641 244.863C553.228 255.612 554.184 263.152 556.047 269.284L553.747 269.979C551.82 263.637 550.836 255.923 550.239 244.975L552.641 244.863ZM556.047 269.284C557.891 275.353 560.645 280.083 564.84 285.257L562.972 286.768C558.582 281.353 555.694 276.384 553.747 269.979L556.047 269.284ZM565.004 286.505C564.645 287.297 563.521 287.444 562.972 286.768L563.907 286.013L565.004 286.505ZM421.014 489.078C441.414 493.356 454.299 493.86 465.091 491.098L465.682 493.426C454.495 496.289 441.291 495.798 420.525 491.443L421.014 489.078ZM465.091 491.098C475.864 488.34 484.715 482.27 496.973 473.42L498.381 475.372C485.908 484.377 476.887 490.557 465.682 493.426L465.091 491.098ZM498.179 473.298C498.994 473.673 499.11 474.845 498.381 475.372L497.677 474.396L498.179 473.298ZM497.175 475.494C483.065 469.001 469.89 469.257 457.414 472.95L456.738 470.641C469.737 466.793 483.469 466.529 498.179 473.298L497.175 475.494ZM457.414 472.95C444.839 476.673 432.9 483.908 421.422 491.274L420.118 489.247C431.737 481.789 443.841 474.46 456.738 470.641L457.414 472.95ZM420.525 491.443C419.515 491.231 419.248 489.805 420.118 489.247L420.77 490.26L420.525 491.443ZM454.828 462.361C494.694 470.721 508.711 460.593 532.305 443.543L533.712 445.494C509.573 462.939 495.232 473.301 454.34 464.726L454.828 462.361ZM532.305 443.543C532.769 443.207 533.238 442.868 533.709 442.528L535.117 444.48C534.646 444.82 534.177 445.159 533.712 445.494L532.305 443.543ZM534.69 442.331C535.656 442.563 535.924 443.897 535.117 444.48L534.413 443.504L534.69 442.331ZM534.136 444.677L534.127 444.675L534.681 442.328L534.69 442.331L534.136 444.677ZM534.127 444.675C531.283 443.988 528.197 443.639 524.929 443.579L524.957 441.177C528.432 441.24 531.695 441.607 534.681 442.328L534.127 444.675ZM524.929 443.579C521.614 443.519 518.098 443.751 514.445 444.227L514.145 441.843C517.904 441.353 521.529 441.115 524.957 441.177L524.929 443.579ZM514.445 444.227C495.55 446.691 473.01 455.687 455.119 464.622L454.049 462.463C472.116 453.44 494.924 444.349 514.145 441.843L514.445 444.227ZM454.34 464.726C453.289 464.505 453.086 462.944 454.049 462.463L454.584 463.543L454.34 464.726ZM486.972 432.721C519.365 439.514 529.554 428.737 543.594 413.886L545.349 415.538C530.768 430.961 520.186 442.154 486.484 435.086L486.972 432.721ZM543.594 413.886C547.127 410.149 550.9 406.158 555.309 402.119L556.932 403.902C552.576 407.892 548.845 411.84 545.349 415.538L543.594 413.886ZM556.435 401.847C557.327 402.09 557.614 403.278 556.932 403.902L556.121 403.011L556.435 401.847ZM555.806 404.174L555.798 404.172L556.427 401.844L556.435 401.847L555.806 404.174ZM555.798 404.172C552.143 403.181 548.44 402.732 544.742 402.74V400.338C548.666 400.33 552.58 400.801 556.427 401.844L555.798 404.172ZM544.742 402.74C541.029 402.748 537.302 403.214 533.619 404.049L533.094 401.703C536.934 400.832 540.836 400.346 544.742 400.338V402.74ZM533.619 404.049C514.571 408.373 496.845 422.561 487.689 434.626L485.766 433.181C495.187 420.767 513.447 406.162 533.094 401.703L533.619 404.049ZM486.484 435.086C485.643 434.91 485.245 433.867 485.766 433.181L486.728 433.903L486.484 435.086ZM515.35 398.308C546.317 398.703 554.153 388.71 563.186 377.188L565.092 378.662C555.661 390.689 547.481 401.121 515.321 400.711L515.35 398.308ZM563.186 377.188C567.049 372.263 571.123 367.067 577.232 362.209L578.724 364.096C572.85 368.767 568.866 373.847 565.092 378.662L563.186 377.188ZM578.349 362.012C579.23 362.306 579.449 363.519 578.724 364.096L577.978 363.152L578.349 362.012ZM577.607 364.293L577.6 364.29L578.342 362.009L578.349 362.012L577.607 364.293ZM577.6 364.29H577.582L577.972 363.15L577.6 364.29ZM577.582 364.29C573.7 362.97 569.922 362.32 566.268 362.234L566.315 359.832C570.228 359.924 574.253 360.613 578.361 362.009L577.582 364.29ZM566.268 362.234C562.612 362.149 559.058 362.627 555.631 363.56L555.002 361.233C558.626 360.245 562.404 359.741 566.315 359.832L566.268 362.234ZM555.631 363.56C537.878 368.399 523.741 385.478 516.406 400.049L514.265 398.969C521.839 383.927 536.498 366.276 555.002 361.233L555.631 363.56ZM515.321 400.711C514.46 400.7 513.878 399.741 514.265 398.969L515.335 399.509L515.321 400.711ZM116.231 432.255C118.201 434.293 120.174 436.29 122.152 438.244L120.473 439.962C118.456 437.968 116.463 435.953 114.495 433.916L116.231 432.255ZM122.152 438.244C124.066 440.136 126.073 442.074 128.175 444.056L126.523 445.811C124.571 443.969 122.553 442.019 120.473 439.962L122.152 438.244ZM128.24 444.126C129.045 445.02 127.396 446.634 126.523 445.811L127.349 444.933L128.24 444.126ZM126.457 445.74L126.454 445.736L128.238 444.122L128.24 444.126L126.457 445.74ZM126.454 445.736L126.435 445.718L127.346 444.929L126.454 445.736ZM126.435 445.718C125.41 444.534 125.249 444.345 125.029 444.089L126.869 442.522C127.579 443.35 128.164 444.035 128.256 444.141L126.435 445.718ZM125.029 444.089C121.709 440.216 118.385 436.34 114.734 434.113L115.993 432.058C119.984 434.493 123.428 438.509 126.869 442.522L125.029 444.089ZM114.495 433.916C113.671 433.064 114.983 431.442 115.993 432.058L115.364 433.085L114.495 433.916ZM159.134 470.303C159.683 470.724 160.148 471.078 160.574 471.4L159.129 473.324C158.585 472.913 158.08 472.529 157.662 472.207L159.134 470.303ZM160.574 471.4C161.06 471.766 161.546 472.133 162.034 472.499L160.588 474.423C160.101 474.057 159.614 473.69 159.129 473.324L160.574 471.4ZM162.071 472.532C163.001 473.293 161.547 475.143 160.588 474.423L161.311 473.461L162.071 472.532ZM160.551 474.39C160.131 474.046 159.671 473.682 159.159 473.295L160.605 471.371C161.063 471.719 161.556 472.11 162.071 472.532L160.551 474.39ZM159.159 473.295C158.709 472.952 158.229 472.604 157.718 472.25L159.078 470.26C159.575 470.604 160.085 470.976 160.605 471.371L159.159 473.295ZM157.662 472.207C156.707 471.474 158.089 469.576 159.078 470.26L158.398 471.255L157.662 472.207ZM49.423 326.204L49.4137 326.184L51.6091 325.217L51.6185 325.237L49.423 326.204ZM51.6094 325.207L51.6091 325.217L50.512 325.7L51.6094 325.207ZM49.414 326.193C47.7362 322.486 46.3479 318.783 45.2519 315.086L47.5605 314.41C48.6218 317.99 49.9722 321.589 51.6094 325.207L49.414 326.193ZM45.2519 315.086C44.1562 311.393 43.3546 307.706 42.8456 304.028L45.2297 303.709C45.721 307.26 46.4981 310.828 47.5605 314.41L45.2519 315.086ZM42.8456 304.028C40.2334 285.138 45.3918 266.588 58.3162 248.38L60.268 249.769C47.7166 267.452 42.703 285.433 45.2297 303.709L42.8456 304.028ZM58.3162 248.38C58.7884 247.715 59.8458 247.737 60.2967 248.413L59.2921 249.075L58.3162 248.38ZM60.2967 248.413C63.3558 253.003 65.833 257.901 67.3731 263.29L65.0646 263.947C63.6023 258.832 61.2292 254.149 58.288 249.737L60.2967 248.413ZM67.3731 263.29C68.9182 268.697 69.515 274.563 68.8068 281.06L66.4045 280.807C67.0806 274.607 66.5209 269.044 65.0646 263.947L67.3731 263.29ZM66.4045 280.877C66.4045 280.877 66.4045 280.807 66.4045 280.807L67.6052 280.934L66.4045 280.877ZM68.8068 280.99C68.2058 291.995 66.0458 300.678 62.9458 307.957L60.731 307.028C63.7301 299.986 65.8209 291.569 66.4045 280.877L68.8068 280.99ZM62.9458 307.957C59.8405 315.247 55.807 321.108 51.4545 326.476L49.5866 324.965C53.8194 319.744 57.7361 314.059 60.731 307.028L62.9458 307.957ZM51.4545 326.476C50.9057 327.153 49.7775 327.001 49.423 326.204L50.521 325.721L51.4545 326.476ZM36.0321 286.505C28.1121 269.013 29.9132 254.921 31.9862 238.693L34.3704 238.993C32.3433 254.857 30.5829 268.635 38.2285 285.52L36.0321 286.505ZM31.9862 238.693C33.0516 230.352 34.1912 221.436 34.0869 211.218L36.4892 211.209C36.5949 221.581 35.4452 230.577 34.3704 238.993L31.9862 238.693ZM34.0869 211.218C34.0762 210.119 35.6709 209.629 36.2828 210.547L35.2876 211.214L34.0869 211.218ZM36.2828 210.547L36.2921 210.562L34.3025 211.895L34.2918 211.88L36.2828 210.547ZM36.2921 210.562L36.3014 210.566L35.2975 211.228L36.2921 210.562ZM36.3014 210.566C36.9477 211.536 37.7874 212.757 38.6586 214.023L36.6696 215.383C35.8876 214.247 35.1293 213.146 34.2929 211.89L36.3014 210.566ZM38.6586 214.023C44.6265 222.693 52.0563 233.488 50.7943 245.045L48.3921 244.792C49.5585 234.11 42.411 223.725 36.6696 215.383L38.6586 214.023ZM48.3921 244.862C48.3921 244.862 48.3921 244.792 48.3921 244.792L49.5929 244.919L48.3921 244.862ZM50.7943 244.975C50.1967 255.922 49.213 263.636 47.2866 269.978L44.9872 269.283C46.8497 263.152 47.8056 255.611 48.3921 244.862L50.7943 244.975ZM47.2866 269.978C45.3409 276.383 42.4529 281.353 38.0638 286.767L36.1963 285.256C40.3897 280.083 43.143 275.353 44.9872 269.283L47.2866 269.978ZM38.0638 286.767C37.5153 287.444 36.3909 287.298 36.0321 286.505L37.1302 286.012L38.0638 286.767ZM180.51 491.441C159.744 495.796 146.539 496.287 135.352 493.424L135.943 491.096C146.736 493.858 159.622 493.354 180.022 489.076L180.51 491.441ZM135.352 493.424C124.146 490.555 115.124 484.375 102.651 475.37L104.058 473.418C116.316 482.268 125.168 488.338 135.943 491.096L135.352 493.424ZM102.65 475.372C101.92 474.845 102.037 473.673 102.852 473.298L103.354 474.396L102.65 475.372ZM102.852 473.298C117.564 466.529 131.295 466.793 144.294 470.641L143.618 472.95C131.142 469.257 117.967 469.002 103.856 475.494L102.852 473.298ZM144.294 470.641C157.191 474.46 169.296 481.789 180.918 489.247L179.613 491.274C168.134 483.907 156.193 476.673 143.618 472.95L144.294 470.641ZM180.918 489.247C181.788 489.805 181.519 491.231 180.509 491.443L180.265 490.26L180.918 489.247ZM146.694 464.726C105.796 473.303 91.454 462.936 67.3157 445.486L68.7232 443.534C92.3165 460.59 106.334 470.723 146.206 462.361L146.694 464.726ZM67.3157 445.486C66.8557 445.154 66.3905 444.817 65.9233 444.48L67.3304 442.528C67.7984 442.866 68.2628 443.202 68.7232 443.534L67.3157 445.486ZM65.9233 444.48C65.1167 443.897 65.3843 442.563 66.3495 442.331L66.6266 443.504L65.9233 444.48ZM66.3495 442.331L66.3589 442.328L66.9134 444.675L66.9041 444.677L66.3495 442.331ZM66.3589 442.328C69.3436 441.607 72.6073 441.24 76.0818 441.177L76.1093 443.579C72.842 443.639 69.7563 443.988 66.9134 444.675L66.3589 442.328ZM76.0818 441.177C79.5094 441.115 83.134 441.353 86.8928 441.843L86.5922 444.227C82.939 443.751 79.4236 443.519 76.1093 443.579L76.0818 441.177ZM86.8928 441.843C106.112 444.349 128.92 453.44 146.985 462.463L145.915 464.622C128.027 455.687 105.486 446.691 86.5922 444.227L86.8928 441.843ZM146.985 462.463C147.948 462.944 147.746 464.505 146.694 464.726L146.45 463.543L146.985 462.463ZM114.553 435.087C80.8521 442.154 70.2717 430.964 55.6933 415.543L57.4485 413.891C71.4855 428.739 81.6726 439.514 114.064 432.721L114.553 435.087ZM55.6933 415.543C52.1961 411.844 48.4614 407.895 44.1037 403.903L45.7274 402.119C50.1389 406.16 53.913 410.152 57.4485 413.891L55.6933 415.543ZM44.1037 403.903C43.4226 403.279 43.7091 402.09 44.6007 401.847L44.9155 403.011L44.1037 403.903ZM44.6007 401.847L44.6088 401.845L45.2377 404.172L45.2283 404.175L44.6007 401.847ZM44.6088 401.845C48.4544 400.802 52.3693 400.33 56.2919 400.338V402.74C52.5953 402.732 48.8925 403.181 45.2377 404.172L44.6088 401.845ZM56.2919 400.338C60.1993 400.346 64.1013 400.832 67.9413 401.703L67.416 404.05C63.7328 403.214 60.0058 402.748 56.2919 402.74V400.338ZM67.9413 401.703C87.5865 406.162 105.846 420.767 115.27 433.181L113.345 434.626C104.188 422.562 86.4625 408.373 67.416 404.05L67.9413 401.703ZM115.27 433.181C115.791 433.867 115.393 434.911 114.553 435.087L114.307 433.904L115.27 433.181ZM85.7178 400.711C53.55 401.121 45.3681 390.687 35.9373 378.658L37.8426 377.185C46.8765 388.708 54.7145 398.704 85.6904 398.309L85.7178 400.711ZM35.9373 378.658C32.1632 373.844 28.1809 368.766 22.3102 364.097L23.8028 362.21C29.9085 367.066 33.9814 372.261 37.8426 377.185L35.9373 378.658ZM22.3102 364.097C21.5857 363.52 21.8045 362.307 22.6854 362.013L23.0562 363.153L22.3102 364.097ZM22.6854 362.013L22.6921 362.01L23.4341 364.291L23.4274 364.294L22.6854 362.013ZM23.4531 364.291L23.4341 364.291L23.063 363.151L23.4531 364.291ZM22.6738 362.011C26.7814 360.614 30.8065 359.925 34.7202 359.833L34.7676 362.236C31.113 362.321 27.3343 362.971 23.4531 364.291L22.6738 362.011ZM34.7202 359.833C38.6317 359.742 42.4105 360.247 46.034 361.234L45.4054 363.561C41.9789 362.628 38.4242 362.15 34.7676 362.236L34.7202 359.833ZM46.034 361.234C64.5385 366.277 79.1981 383.928 86.7745 398.971L84.635 400.05C77.2958 385.48 63.1582 368.4 45.4054 363.561L46.034 361.234ZM86.7745 398.971C87.1631 399.742 86.5793 400.7 85.7178 400.711L85.7046 399.51L86.7745 398.971Z" fill="#009140"/>
</svg>
